<?xml version="1.0" encoding="utf-8" standalone="no"?>
<!DOCTYPE svg PUBLIC "-//W3C//DTD SVG 1.1//EN"
  "http://www.w3.org/Graphics/SVG/1.1/DTD/svg11.dtd">
<svg xmlns:xlink="http://www.w3.org/1999/xlink" width="407.495625pt" height="325.608094pt" viewBox="0 0 407.495625 325.608094" xmlns="http://www.w3.org/2000/svg" version="1.1">
 <metadata>
  <rdf:RDF xmlns:dc="http://purl.org/dc/elements/1.1/" xmlns:cc="http://creativecommons.org/ns#" xmlns:rdf="http://www.w3.org/1999/02/22-rdf-syntax-ns#">
   <cc:Work>
    <dc:type rdf:resource="http://purl.org/dc/dcmitype/StillImage"/>
    <dc:date>2026-07-02T21:23:11.518737</dc:date>
    <dc:format>image/svg+xml</dc:format>
    <dc:creator>
     <cc:Agent>
      <dc:title>Matplotlib v3.10.8, https://matplotlib.org/</dc:title>
     </cc:Agent>
    </dc:creator>
   </cc:Work>
  </rdf:RDF>
 </metadata>
 <defs>
  <style type="text/css">*{stroke-linejoin: round; stroke-linecap: butt}</style>
 </defs>
 <g id="figure_1">
  <g id="patch_1">
   <path d="M 0 325.608094 
L 407.495625 325.608094 
L 407.495625 0 
L 0 0 
z
" style="fill: #ffffff"/>
  </g>
  <g id="axes_1">
   <g id="patch_2">
    <path d="M 43.175625 288.332781 
L 400.295625 288.332781 
L 400.295625 22.220781 
L 43.175625 22.220781 
z
" style="fill: #ffffff"/>
   </g>
   <g id="FillBetweenPolyCollection_1">
    <defs>
     <path id="md39ac93500" d="M 59.408352 -49.628994 
L 59.408352 -49.628994 
L 82.597963 -49.558374 
L 105.787573 -49.583197 
L 128.977183 -49.559724 
L 152.166794 -49.578432 
L 175.356404 -49.523321 
L 198.546015 -49.492406 
L 221.735625 -49.496173 
L 244.925235 -49.477574 
L 268.114846 -49.442941 
L 291.304456 -49.426896 
L 314.494067 -49.409915 
L 337.683677 -49.392194 
L 360.873287 -49.381916 
L 384.062898 -49.371313 
L 384.062898 -49.3857 
L 384.062898 -49.3857 
L 360.873287 -49.387644 
L 337.683677 -49.411402 
L 314.494067 -49.43328 
L 291.304456 -49.482636 
L 268.114846 -49.502258 
L 244.925235 -49.531106 
L 221.735625 -49.50733 
L 198.546015 -49.545099 
L 175.356404 -49.565307 
L 152.166794 -49.644138 
L 128.977183 -49.632485 
L 105.787573 -49.60262 
L 82.597963 -49.645272 
L 59.408352 -49.628994 
z
" style="stroke: #999999; stroke-opacity: 0.12"/>
    </defs>
    <g clip-path="url(#p232c75db08)">
     <use xlink:href="#md39ac93500" x="0" y="325.608094" style="fill: #999999; fill-opacity: 0.12; stroke: #999999; stroke-opacity: 0.12"/>
    </g>
   </g>
   <g id="FillBetweenPolyCollection_2">
    <defs>
     <path id="m9e115506f0" d="M 59.408352 -57.428123 
L 59.408352 -57.428123 
L 82.597963 -55.830957 
L 105.787573 -54.252878 
L 128.977183 -53.692662 
L 152.166794 -54.094099 
L 175.356404 -53.439544 
L 198.546015 -53.001827 
L 221.735625 -52.789338 
L 244.925235 -53.212295 
L 268.114846 -53.262197 
L 291.304456 -51.616992 
L 314.494067 -50.938945 
L 337.683677 -51.668379 
L 360.873287 -50.91948 
L 384.062898 -50.639529 
L 384.062898 -51.99724 
L 384.062898 -51.99724 
L 360.873287 -51.941869 
L 337.683677 -53.305149 
L 314.494067 -52.755418 
L 291.304456 -52.439224 
L 268.114846 -54.308348 
L 244.925235 -54.275342 
L 221.735625 -57.232778 
L 198.546015 -57.138411 
L 175.356404 -55.531127 
L 152.166794 -57.51497 
L 128.977183 -56.119864 
L 105.787573 -58.435045 
L 82.597963 -57.026325 
L 59.408352 -57.428123 
z
" style="stroke: #0065bd; stroke-opacity: 0.12"/>
    </defs>
    <g clip-path="url(#p232c75db08)">
     <use xlink:href="#m9e115506f0" x="0" y="325.608094" style="fill: #0065bd; fill-opacity: 0.12; stroke: #0065bd; stroke-opacity: 0.12"/>
    </g>
   </g>
   <g id="FillBetweenPolyCollection_3">
    <defs>
     <path id="mbfe5c5171f" d="M 59.408352 -62.245472 
L 59.408352 -62.245472 
L 82.597963 -57.027125 
L 105.787573 -55.186959 
L 128.977183 -55.454403 
L 152.166794 -54.257984 
L 175.356404 -55.144446 
L 198.546015 -53.864868 
L 221.735625 -53.532818 
L 244.925235 -54.153826 
L 268.114846 -52.003432 
L 291.304456 -51.460732 
L 314.494067 -51.92231 
L 337.683677 -51.481213 
L 360.873287 -50.963292 
L 384.062898 -51.169957 
L 384.062898 -52.960071 
L 384.062898 -52.960071 
L 360.873287 -51.908076 
L 337.683677 -52.509343 
L 314.494067 -53.551998 
L 291.304456 -52.444415 
L 268.114846 -53.592094 
L 244.925235 -56.793647 
L 221.735625 -54.707663 
L 198.546015 -57.89221 
L 175.356404 -60.545669 
L 152.166794 -56.581371 
L 128.977183 -58.683995 
L 105.787573 -60.296646 
L 82.597963 -70.907235 
L 59.408352 -62.245472 
z
" style="stroke: #000000; stroke-opacity: 0.12"/>
    </defs>
    <g clip-path="url(#p232c75db08)">
     <use xlink:href="#mbfe5c5171f" x="0" y="325.608094" style="fill-opacity: 0.12; stroke: #000000; stroke-opacity: 0.12"/>
    </g>
   </g>
   <g id="FillBetweenPolyCollection_4">
    <defs>
     <path id="m7fc9f711d6" d="M 59.408352 -146.304339 
L 59.408352 -146.304339 
L 82.597963 -58.733392 
L 105.787573 -59.776852 
L 128.977183 -57.860183 
L 152.166794 -57.291329 
L 175.356404 -54.197723 
L 198.546015 -54.814439 
L 221.735625 -53.818657 
L 244.925235 -52.713344 
L 268.114846 -51.620578 
L 291.304456 -51.759705 
L 314.494067 -50.723019 
L 337.683677 -50.554485 
L 360.873287 -50.773271 
L 384.062898 -50.381237 
L 384.062898 -50.717567 
L 384.062898 -50.717567 
L 360.873287 -52.753118 
L 337.683677 -51.765034 
L 314.494067 -52.321785 
L 291.304456 -52.847937 
L 268.114846 -54.172015 
L 244.925235 -53.923575 
L 221.735625 -56.592349 
L 198.546015 -58.437418 
L 175.356404 -57.129702 
L 152.166794 -70.604971 
L 128.977183 -77.689518 
L 105.787573 -68.437311 
L 82.597963 -78.08114 
L 59.408352 -146.304339 
z
" style="stroke: #9fba36; stroke-opacity: 0.12"/>
    </defs>
    <g clip-path="url(#p232c75db08)">
     <use xlink:href="#m7fc9f711d6" x="0" y="325.608094" style="fill: #9fba36; fill-opacity: 0.12; stroke: #9fba36; stroke-opacity: 0.12"/>
    </g>
   </g>
   <g id="FillBetweenPolyCollection_5">
    <defs>
     <path id="mf7bafd2436" d="M 59.408352 -127.525532 
L 59.408352 -127.525532 
L 82.597963 -70.938078 
L 105.787573 -68.816472 
L 128.977183 -54.859518 
L 152.166794 -59.342197 
L 175.356404 -55.25937 
L 198.546015 -55.504905 
L 221.735625 -53.040922 
L 244.925235 -54.2745 
L 268.114846 -51.657545 
L 291.304456 -52.102796 
L 314.494067 -51.455219 
L 337.683677 -51.100803 
L 360.873287 -50.571487 
L 384.062898 -50.546444 
L 384.062898 -51.013743 
L 384.062898 -51.013743 
L 360.873287 -51.771513 
L 337.683677 -51.873366 
L 314.494067 -52.628108 
L 291.304456 -53.142419 
L 268.114846 -57.629314 
L 244.925235 -57.415236 
L 221.735625 -64.452164 
L 198.546015 -60.965766 
L 175.356404 -83.057358 
L 152.166794 -69.483899 
L 128.977183 -95.89004 
L 105.787573 -94.723707 
L 82.597963 -77.93399 
L 59.408352 -127.525532 
z
" style="stroke: #999999; stroke-opacity: 0.12"/>
    </defs>
    <g clip-path="url(#p232c75db08)">
     <use xlink:href="#mf7bafd2436" x="0" y="325.608094" style="fill: #999999; fill-opacity: 0.12; stroke: #999999; stroke-opacity: 0.12"/>
    </g>
   </g>
   <g id="FillBetweenPolyCollection_6">
    <defs>
     <path id="m3d1f916e5e" d="M 59.408352 -127.619667 
L 59.408352 -127.619667 
L 82.597963 -92.82618 
L 105.787573 -71.642162 
L 128.977183 -58.514778 
L 152.166794 -66.848741 
L 175.356404 -55.552638 
L 198.546015 -56.758296 
L 221.735625 -55.188334 
L 244.925235 -52.236971 
L 268.114846 -53.529525 
L 291.304456 -51.564459 
L 314.494067 -51.112544 
L 337.683677 -50.920873 
L 360.873287 -50.918 
L 384.062898 -50.599085 
L 384.062898 -51.113983 
L 384.062898 -51.113983 
L 360.873287 -51.599655 
L 337.683677 -54.152314 
L 314.494067 -52.250099 
L 291.304456 -52.801707 
L 268.114846 -59.020749 
L 244.925235 -57.938011 
L 221.735625 -69.375195 
L 198.546015 -62.144464 
L 175.356404 -69.854376 
L 152.166794 -87.894589 
L 128.977183 -112.527448 
L 105.787573 -115.039544 
L 82.597963 -166.420133 
L 59.408352 -127.619667 
z
" style="stroke: #0065bd; stroke-opacity: 0.12"/>
    </defs>
    <g clip-path="url(#p232c75db08)">
     <use xlink:href="#m3d1f916e5e" x="0" y="325.608094" style="fill: #0065bd; fill-opacity: 0.12; stroke: #0065bd; stroke-opacity: 0.12"/>
    </g>
   </g>
   <g id="FillBetweenPolyCollection_7">
    <defs>
     <path id="m7c846c68bb" d="M 59.408352 -100.298983 
L 59.408352 -100.298983 
L 82.597963 -138.433539 
L 105.787573 -104.942848 
L 128.977183 -80.115637 
L 152.166794 -78.661765 
L 175.356404 -73.583597 
L 198.546015 -56.76712 
L 221.735625 -61.103569 
L 244.925235 -53.210713 
L 268.114846 -53.849885 
L 291.304456 -51.482395 
L 314.494067 -51.217135 
L 337.683677 -51.018751 
L 360.873287 -50.676795 
L 384.062898 -50.468785 
L 384.062898 -51.277533 
L 384.062898 -51.277533 
L 360.873287 -51.015883 
L 337.683677 -51.719374 
L 314.494067 -53.781218 
L 291.304456 -52.82666 
L 268.114846 -61.155978 
L 244.925235 -61.907886 
L 221.735625 -72.746301 
L 198.546015 -87.916995 
L 175.356404 -95.438522 
L 152.166794 -103.689283 
L 128.977183 -131.885543 
L 105.787573 -142.287301 
L 82.597963 -177.747657 
L 59.408352 -100.298983 
z
" style="stroke: #000000; stroke-opacity: 0.12"/>
    </defs>
    <g clip-path="url(#p232c75db08)">
     <use xlink:href="#m7c846c68bb" x="0" y="325.608094" style="fill-opacity: 0.12; stroke: #000000; stroke-opacity: 0.12"/>
    </g>
   </g>
   <g id="FillBetweenPolyCollection_8">
    <defs>
     <path id="m97e2ad41dc" d="M 59.408352 -113.848726 
L 59.408352 -113.848726 
L 82.597963 -128.316866 
L 105.787573 -117.42102 
L 128.977183 -89.834604 
L 152.166794 -81.252071 
L 175.356404 -55.876116 
L 198.546015 -69.397507 
L 221.735625 -63.7083 
L 244.925235 -55.086364 
L 268.114846 -55.06193 
L 291.304456 -53.04488 
L 314.494067 -52.07628 
L 337.683677 -50.680109 
L 360.873287 -50.611687 
L 384.062898 -50.037775 
L 384.062898 -50.309092 
L 384.062898 -50.309092 
L 360.873287 -51.738454 
L 337.683677 -52.941044 
L 314.494067 -54.897765 
L 291.304456 -55.239072 
L 268.114846 -62.448046 
L 244.925235 -67.338749 
L 221.735625 -80.980833 
L 198.546015 -80.605037 
L 175.356404 -99.412361 
L 152.166794 -95.065953 
L 128.977183 -136.922546 
L 105.787573 -175.717795 
L 82.597963 -166.128836 
L 59.408352 -113.848726 
z
" style="stroke: #9fba36; stroke-opacity: 0.12"/>
    </defs>
    <g clip-path="url(#p232c75db08)">
     <use xlink:href="#m97e2ad41dc" x="0" y="325.608094" style="fill: #9fba36; fill-opacity: 0.12; stroke: #9fba36; stroke-opacity: 0.12"/>
    </g>
   </g>
   <g id="FillBetweenPolyCollection_9">
    <defs>
     <path id="m79e8a2d3e8" d="M 59.408352 -269.984559 
L 59.408352 -269.984559 
L 82.597963 -206.573014 
L 105.787573 -135.558736 
L 128.977183 -114.355378 
L 152.166794 -113.384457 
L 175.356404 -98.741527 
L 198.546015 -100.659369 
L 221.735625 -74.857233 
L 244.925235 -66.764936 
L 268.114846 -62.564921 
L 291.304456 -57.059152 
L 314.494067 -52.116588 
L 337.683677 -50.836857 
L 360.873287 -51.21909 
L 384.062898 -50.678704 
L 384.062898 -51.235094 
L 384.062898 -51.235094 
L 360.873287 -52.34402 
L 337.683677 -52.942195 
L 314.494067 -57.162224 
L 291.304456 -62.314211 
L 268.114846 -71.404512 
L 244.925235 -76.757179 
L 221.735625 -96.614399 
L 198.546015 -108.059014 
L 175.356404 -121.657593 
L 152.166794 -138.610136 
L 128.977183 -157.23281 
L 105.787573 -203.601103 
L 82.597963 -283.856852 
L 59.408352 -269.984559 
z
" style="stroke: #999999; stroke-opacity: 0.12"/>
    </defs>
    <g clip-path="url(#p232c75db08)">
     <use xlink:href="#m79e8a2d3e8" x="0" y="325.608094" style="fill: #999999; fill-opacity: 0.12; stroke: #999999; stroke-opacity: 0.12"/>
    </g>
   </g>
   <g id="FillBetweenPolyCollection_10">
    <defs>
     <path id="m391e932295" d="M 59.408352 -289.723716 
L 59.408352 -289.723716 
L 82.597963 -179.821341 
L 105.787573 -154.064615 
L 128.977183 -129.124888 
L 152.166794 -118.323841 
L 175.356404 -121.30801 
L 198.546015 -111.866323 
L 221.735625 -92.487526 
L 244.925235 -69.101981 
L 268.114846 -68.075423 
L 291.304456 -60.197414 
L 314.494067 -55.818627 
L 337.683677 -52.650168 
L 360.873287 -51.70962 
L 384.062898 -50.9208 
L 384.062898 -52.93347 
L 384.062898 -52.93347 
L 360.873287 -52.834366 
L 337.683677 -54.247334 
L 314.494067 -62.168076 
L 291.304456 -66.682313 
L 268.114846 -84.126023 
L 244.925235 -96.610863 
L 221.735625 -120.014257 
L 198.546015 -120.348936 
L 175.356404 -139.405643 
L 152.166794 -183.538929 
L 128.977183 -197.24487 
L 105.787573 -238.979138 
L 82.597963 -274.667551 
L 59.408352 -289.723716 
z
" style="stroke: #0065bd; stroke-opacity: 0.12"/>
    </defs>
    <g clip-path="url(#p232c75db08)">
     <use xlink:href="#m391e932295" x="0" y="325.608094" style="fill: #0065bd; fill-opacity: 0.12; stroke: #0065bd; stroke-opacity: 0.12"/>
    </g>
   </g>
   <g id="FillBetweenPolyCollection_11">
    <defs>
     <path id="m7a2a432cf6" d="M 59.408352 -291.291313 
L 59.408352 -291.291313 
L 82.597963 -195.371727 
L 105.787573 -130.129233 
L 128.977183 -101.808091 
L 152.166794 -96.137844 
L 175.356404 -81.514308 
L 198.546015 -83.305023 
L 221.735625 -69.876836 
L 244.925235 -68.651815 
L 268.114846 -61.208845 
L 291.304456 -58.590742 
L 314.494067 -54.310476 
L 337.683677 -51.922857 
L 360.873287 -51.539024 
L 384.062898 -50.70224 
L 384.062898 -51.60952 
L 384.062898 -51.60952 
L 360.873287 -52.093423 
L 337.683677 -55.631649 
L 314.494067 -57.418931 
L 291.304456 -60.375087 
L 268.114846 -66.182304 
L 244.925235 -75.88162 
L 221.735625 -83.283947 
L 198.546015 -103.831412 
L 175.356404 -119.028131 
L 152.166794 -139.534757 
L 128.977183 -163.870222 
L 105.787573 -204.713715 
L 82.597963 -260.449282 
L 59.408352 -291.291313 
z
" style="stroke: #000000; stroke-opacity: 0.12"/>
    </defs>
    <g clip-path="url(#p232c75db08)">
     <use xlink:href="#m7a2a432cf6" x="0" y="325.608094" style="fill-opacity: 0.12; stroke: #000000; stroke-opacity: 0.12"/>
    </g>
   </g>
   <g id="matplotlib.axis_1">
    <g id="xtick_1">
     <g id="line2d_1">
      <path d="M 59.408352 288.332781 
L 59.408352 22.220781 
" clip-path="url(#p232c75db08)" style="fill: none; stroke: #808080; stroke-opacity: 0.4; stroke-width: 0.3; stroke-linecap: square"/>
     </g>
     <g id="line2d_2">
      <defs>
       <path id="ma4952a8c6c" d="M 0 0 
L 0 3.5 
" style="stroke: #000000; stroke-width: 0.8"/>
      </defs>
      <g>
       <use xlink:href="#ma4952a8c6c" x="59.408352" y="288.332781" style="stroke: #000000; stroke-width: 0.8"/>
      </g>
     </g>
     <g id="text_1">
      <!-- 0 -->
      <g transform="translate(56.908352 302.271844) scale(0.1 -0.1)">
       <defs>
        <path id="LiberationSerif-30" d="M 2956 2113 
Q 2956 -63 1581 -63 
Q 919 -63 581 493 
Q 244 1050 244 2113 
Q 244 3153 581 3704 
Q 919 4256 1606 4256 
Q 2269 4256 2612 3711 
Q 2956 3166 2956 2113 
z
M 2381 2113 
Q 2381 3119 2190 3562 
Q 2000 4006 1581 4006 
Q 1175 4006 997 3587 
Q 819 3169 819 2113 
Q 819 1050 1000 617 
Q 1181 184 1581 184 
Q 1994 184 2187 639 
Q 2381 1094 2381 2113 
z
" transform="scale(0.015625)"/>
       </defs>
       <use xlink:href="#LiberationSerif-30"/>
      </g>
     </g>
    </g>
    <g id="xtick_2">
     <g id="line2d_3">
      <path d="M 105.787573 288.332781 
L 105.787573 22.220781 
" clip-path="url(#p232c75db08)" style="fill: none; stroke: #808080; stroke-opacity: 0.4; stroke-width: 0.3; stroke-linecap: square"/>
     </g>
     <g id="line2d_4">
      <g>
       <use xlink:href="#ma4952a8c6c" x="105.787573" y="288.332781" style="stroke: #000000; stroke-width: 0.8"/>
      </g>
     </g>
     <g id="text_2">
      <!-- 10 -->
      <g transform="translate(100.787573 302.271844) scale(0.1 -0.1)">
       <defs>
        <path id="LiberationSerif-31" d="M 1959 250 
L 2816 166 
L 2816 0 
L 563 0 
L 563 166 
L 1422 250 
L 1422 3669 
L 575 3366 
L 575 3531 
L 1797 4225 
L 1959 4225 
L 1959 250 
z
" transform="scale(0.015625)"/>
       </defs>
       <use xlink:href="#LiberationSerif-31"/>
       <use xlink:href="#LiberationSerif-30" transform="translate(50 0)"/>
      </g>
     </g>
    </g>
    <g id="xtick_3">
     <g id="line2d_5">
      <path d="M 152.166794 288.332781 
L 152.166794 22.220781 
" clip-path="url(#p232c75db08)" style="fill: none; stroke: #808080; stroke-opacity: 0.4; stroke-width: 0.3; stroke-linecap: square"/>
     </g>
     <g id="line2d_6">
      <g>
       <use xlink:href="#ma4952a8c6c" x="152.166794" y="288.332781" style="stroke: #000000; stroke-width: 0.8"/>
      </g>
     </g>
     <g id="text_3">
      <!-- 20 -->
      <g transform="translate(147.166794 302.271844) scale(0.1 -0.1)">
       <defs>
        <path id="LiberationSerif-32" d="M 2847 0 
L 281 0 
L 281 459 
L 863 988 
Q 1422 1478 1684 1781 
Q 1947 2084 2061 2406 
Q 2175 2728 2175 3144 
Q 2175 3550 1990 3762 
Q 1806 3975 1388 3975 
Q 1222 3975 1047 3929 
Q 872 3884 738 3809 
L 628 3297 
L 422 3297 
L 422 4103 
Q 991 4238 1388 4238 
Q 2075 4238 2420 3952 
Q 2766 3666 2766 3144 
Q 2766 2794 2630 2483 
Q 2494 2172 2212 1864 
Q 1931 1556 1281 1003 
Q 1003 766 691 481 
L 2847 481 
L 2847 0 
z
" transform="scale(0.015625)"/>
       </defs>
       <use xlink:href="#LiberationSerif-32"/>
       <use xlink:href="#LiberationSerif-30" transform="translate(50 0)"/>
      </g>
     </g>
    </g>
    <g id="xtick_4">
     <g id="line2d_7">
      <path d="M 198.546015 288.332781 
L 198.546015 22.220781 
" clip-path="url(#p232c75db08)" style="fill: none; stroke: #808080; stroke-opacity: 0.4; stroke-width: 0.3; stroke-linecap: square"/>
     </g>
     <g id="line2d_8">
      <g>
       <use xlink:href="#ma4952a8c6c" x="198.546015" y="288.332781" style="stroke: #000000; stroke-width: 0.8"/>
      </g>
     </g>
     <g id="text_4">
      <!-- 30 -->
      <g transform="translate(193.546015 302.271844) scale(0.1 -0.1)">
       <defs>
        <path id="LiberationSerif-33" d="M 2950 1141 
Q 2950 575 2562 256 
Q 2175 -63 1466 -63 
Q 872 -63 341 72 
L 306 953 
L 513 953 
L 653 366 
Q 775 297 998 247 
Q 1222 197 1416 197 
Q 1906 197 2140 422 
Q 2375 647 2375 1172 
Q 2375 1584 2159 1798 
Q 1944 2013 1491 2034 
L 1044 2059 
L 1044 2316 
L 1491 2344 
Q 1844 2363 2012 2563 
Q 2181 2763 2181 3169 
Q 2181 3591 1998 3783 
Q 1816 3975 1416 3975 
Q 1250 3975 1069 3929 
Q 888 3884 750 3809 
L 641 3297 
L 434 3297 
L 434 4103 
Q 744 4184 969 4211 
Q 1194 4238 1416 4238 
Q 2759 4238 2759 3206 
Q 2759 2772 2520 2514 
Q 2281 2256 1844 2194 
Q 2413 2128 2681 1867 
Q 2950 1606 2950 1141 
z
" transform="scale(0.015625)"/>
       </defs>
       <use xlink:href="#LiberationSerif-33"/>
       <use xlink:href="#LiberationSerif-30" transform="translate(50 0)"/>
      </g>
     </g>
    </g>
    <g id="xtick_5">
     <g id="line2d_9">
      <path d="M 244.925235 288.332781 
L 244.925235 22.220781 
" clip-path="url(#p232c75db08)" style="fill: none; stroke: #808080; stroke-opacity: 0.4; stroke-width: 0.3; stroke-linecap: square"/>
     </g>
     <g id="line2d_10">
      <g>
       <use xlink:href="#ma4952a8c6c" x="244.925235" y="288.332781" style="stroke: #000000; stroke-width: 0.8"/>
      </g>
     </g>
     <g id="text_5">
      <!-- 40 -->
      <g transform="translate(239.925235 302.271844) scale(0.1 -0.1)">
       <defs>
        <path id="LiberationSerif-34" d="M 2531 922 
L 2531 0 
L 1994 0 
L 1994 922 
L 125 922 
L 125 1338 
L 2172 4213 
L 2531 4213 
L 2531 1369 
L 3100 1369 
L 3100 922 
L 2531 922 
z
M 1994 3478 
L 1978 3478 
L 478 1369 
L 1994 1369 
L 1994 3478 
z
" transform="scale(0.015625)"/>
       </defs>
       <use xlink:href="#LiberationSerif-34"/>
       <use xlink:href="#LiberationSerif-30" transform="translate(50 0)"/>
      </g>
     </g>
    </g>
    <g id="xtick_6">
     <g id="line2d_11">
      <path d="M 291.304456 288.332781 
L 291.304456 22.220781 
" clip-path="url(#p232c75db08)" style="fill: none; stroke: #808080; stroke-opacity: 0.4; stroke-width: 0.3; stroke-linecap: square"/>
     </g>
     <g id="line2d_12">
      <g>
       <use xlink:href="#ma4952a8c6c" x="291.304456" y="288.332781" style="stroke: #000000; stroke-width: 0.8"/>
      </g>
     </g>
     <g id="text_6">
      <!-- 50 -->
      <g transform="translate(286.304456 302.271844) scale(0.1 -0.1)">
       <defs>
        <path id="LiberationSerif-35" d="M 1516 2450 
Q 2241 2450 2595 2153 
Q 2950 1856 2950 1247 
Q 2950 616 2565 276 
Q 2181 -63 1466 -63 
Q 872 -63 406 72 
L 372 953 
L 578 953 
L 719 366 
Q 856 291 1048 244 
Q 1241 197 1416 197 
Q 1909 197 2142 430 
Q 2375 663 2375 1216 
Q 2375 1603 2275 1801 
Q 2175 2000 1956 2094 
Q 1738 2188 1369 2188 
Q 1084 2188 813 2113 
L 513 2113 
L 513 4191 
L 2638 4191 
L 2638 3713 
L 794 3713 
L 794 2375 
Q 1131 2450 1516 2450 
z
" transform="scale(0.015625)"/>
       </defs>
       <use xlink:href="#LiberationSerif-35"/>
       <use xlink:href="#LiberationSerif-30" transform="translate(50 0)"/>
      </g>
     </g>
    </g>
    <g id="xtick_7">
     <g id="line2d_13">
      <path d="M 337.683677 288.332781 
L 337.683677 22.220781 
" clip-path="url(#p232c75db08)" style="fill: none; stroke: #808080; stroke-opacity: 0.4; stroke-width: 0.3; stroke-linecap: square"/>
     </g>
     <g id="line2d_14">
      <g>
       <use xlink:href="#ma4952a8c6c" x="337.683677" y="288.332781" style="stroke: #000000; stroke-width: 0.8"/>
      </g>
     </g>
     <g id="text_7">
      <!-- 60 -->
      <g transform="translate(332.683677 302.271844) scale(0.1 -0.1)">
       <defs>
        <path id="LiberationSerif-36" d="M 3009 1300 
Q 3009 647 2679 292 
Q 2350 -63 1728 -63 
Q 1022 -63 648 487 
Q 275 1038 275 2069 
Q 275 2744 472 3234 
Q 669 3725 1023 3981 
Q 1378 4238 1844 4238 
Q 2300 4238 2753 4128 
L 2753 3406 
L 2547 3406 
L 2438 3834 
Q 2334 3891 2159 3933 
Q 1984 3975 1844 3975 
Q 1388 3975 1133 3533 
Q 878 3091 853 2241 
Q 1363 2509 1875 2509 
Q 2428 2509 2718 2198 
Q 3009 1888 3009 1300 
z
M 1716 184 
Q 2094 184 2262 429 
Q 2431 675 2431 1241 
Q 2431 1753 2270 1981 
Q 2109 2209 1759 2209 
Q 1331 2209 850 2053 
Q 850 1100 1065 642 
Q 1281 184 1716 184 
z
" transform="scale(0.015625)"/>
       </defs>
       <use xlink:href="#LiberationSerif-36"/>
       <use xlink:href="#LiberationSerif-30" transform="translate(50 0)"/>
      </g>
     </g>
    </g>
    <g id="xtick_8">
     <g id="line2d_15">
      <path d="M 384.062898 288.332781 
L 384.062898 22.220781 
" clip-path="url(#p232c75db08)" style="fill: none; stroke: #808080; stroke-opacity: 0.4; stroke-width: 0.3; stroke-linecap: square"/>
     </g>
     <g id="line2d_16">
      <g>
       <use xlink:href="#ma4952a8c6c" x="384.062898" y="288.332781" style="stroke: #000000; stroke-width: 0.8"/>
      </g>
     </g>
     <g id="text_8">
      <!-- 70 -->
      <g transform="translate(379.062898 302.271844) scale(0.1 -0.1)">
       <defs>
        <path id="LiberationSerif-37" d="M 628 3200 
L 422 3200 
L 422 4191 
L 3016 4191 
L 3016 3950 
L 1147 0 
L 744 0 
L 2578 3713 
L 738 3713 
L 628 3200 
z
" transform="scale(0.015625)"/>
       </defs>
       <use xlink:href="#LiberationSerif-37"/>
       <use xlink:href="#LiberationSerif-30" transform="translate(50 0)"/>
      </g>
     </g>
    </g>
    <g id="text_9">
     <!-- Edge reduction [%] -->
     <g transform="translate(178.670625 316.0345) scale(0.11 -0.11)">
      <defs>
       <path id="LiberationSerif-45" d="M 184 166 
L 722 250 
L 722 3944 
L 184 4025 
L 184 4191 
L 3328 4191 
L 3328 3188 
L 3122 3188 
L 3022 3866 
Q 2672 3909 2009 3909 
L 1325 3909 
L 1325 2272 
L 2456 2272 
L 2553 2772 
L 2753 2772 
L 2753 1484 
L 2553 1484 
L 2456 1991 
L 1325 1991 
L 1325 281 
L 2150 281 
Q 2956 281 3206 331 
L 3384 1106 
L 3591 1106 
L 3531 0 
L 184 0 
L 184 166 
z
" transform="scale(0.015625)"/>
       <path id="LiberationSerif-64" d="M 2259 219 
Q 1906 -63 1434 -63 
Q 231 -63 231 1441 
Q 231 2213 572 2614 
Q 913 3016 1575 3016 
Q 1913 3016 2259 2944 
Q 2241 3047 2241 3463 
L 2241 4225 
L 1747 4300 
L 1747 4441 
L 2759 4441 
L 2759 219 
L 3122 141 
L 3122 0 
L 2297 0 
L 2259 219 
z
M 794 1441 
Q 794 847 994 555 
Q 1194 263 1606 263 
Q 1959 263 2241 384 
L 2241 2706 
Q 1963 2759 1606 2759 
Q 794 2759 794 1441 
z
" transform="scale(0.015625)"/>
       <path id="LiberationSerif-67" d="M 2719 2009 
Q 2719 1503 2416 1243 
Q 2113 984 1544 984 
Q 1288 984 1069 1031 
L 872 622 
Q 881 569 993 522 
Q 1106 475 1275 475 
L 2144 475 
Q 2619 475 2848 269 
Q 3078 63 3078 -300 
Q 3078 -628 2895 -872 
Q 2713 -1116 2359 -1248 
Q 2006 -1381 1503 -1381 
Q 903 -1381 589 -1197 
Q 275 -1013 275 -672 
Q 275 -506 387 -345 
Q 500 -184 800 31 
Q 622 91 500 234 
Q 378 378 378 544 
L 872 1100 
Q 378 1331 378 2009 
Q 378 2491 683 2753 
Q 988 3016 1569 3016 
Q 1684 3016 1865 2992 
Q 2047 2969 2144 2938 
L 2834 3284 
L 2944 3150 
L 2509 2700 
Q 2719 2466 2719 2009 
z
M 2591 -397 
Q 2591 -219 2481 -119 
Q 2372 -19 2150 -19 
L 1013 -19 
Q 881 -131 798 -304 
Q 716 -478 716 -628 
Q 716 -897 909 -1014 
Q 1103 -1131 1503 -1131 
Q 2025 -1131 2308 -937 
Q 2591 -744 2591 -397 
z
M 1550 1222 
Q 1891 1222 2033 1417 
Q 2175 1613 2175 2009 
Q 2175 2425 2028 2601 
Q 1881 2778 1556 2778 
Q 1228 2778 1075 2600 
Q 922 2422 922 2009 
Q 922 1597 1072 1409 
Q 1222 1222 1550 1222 
z
" transform="scale(0.015625)"/>
       <path id="LiberationSerif-65" d="M 813 1478 
L 813 1422 
Q 813 991 908 752 
Q 1003 513 1201 388 
Q 1400 263 1722 263 
Q 1891 263 2122 291 
Q 2353 319 2503 353 
L 2503 178 
Q 2353 81 2095 9 
Q 1838 -63 1569 -63 
Q 884 -63 567 306 
Q 250 675 250 1491 
Q 250 2259 572 2637 
Q 894 3016 1491 3016 
Q 2619 3016 2619 1734 
L 2619 1478 
L 813 1478 
z
M 1491 2766 
Q 1166 2766 992 2503 
Q 819 2241 819 1728 
L 2075 1728 
Q 2075 2288 1931 2527 
Q 1788 2766 1491 2766 
z
" transform="scale(0.015625)"/>
       <path id="LiberationSerif-20" transform="scale(0.015625)"/>
       <path id="LiberationSerif-72" d="M 2075 3016 
L 2075 2222 
L 1941 2222 
L 1759 2566 
Q 1603 2566 1389 2523 
Q 1175 2481 1019 2413 
L 1019 219 
L 1522 141 
L 1522 0 
L 128 0 
L 128 141 
L 500 219 
L 500 2719 
L 128 2797 
L 128 2938 
L 984 2938 
L 1013 2572 
Q 1200 2728 1520 2872 
Q 1841 3016 2028 3016 
L 2075 3016 
z
" transform="scale(0.015625)"/>
       <path id="LiberationSerif-75" d="M 978 838 
Q 978 300 1478 300 
Q 1866 300 2203 397 
L 2203 2719 
L 1759 2797 
L 1759 2938 
L 2719 2938 
L 2719 219 
L 3091 141 
L 3091 0 
L 2234 0 
L 2209 238 
Q 1988 116 1697 26 
Q 1406 -63 1209 -63 
Q 459 -63 459 800 
L 459 2719 
L 84 2797 
L 84 2938 
L 978 2938 
L 978 838 
z
" transform="scale(0.015625)"/>
       <path id="LiberationSerif-63" d="M 2644 178 
Q 2491 66 2222 1 
Q 1953 -63 1672 -63 
Q 244 -63 244 1491 
Q 244 2225 608 2620 
Q 972 3016 1650 3016 
Q 2072 3016 2572 2919 
L 2572 2100 
L 2400 2100 
L 2266 2619 
Q 2006 2766 1644 2766 
Q 806 2766 806 1491 
Q 806 828 1061 545 
Q 1316 263 1850 263 
Q 2306 263 2644 366 
L 2644 178 
z
" transform="scale(0.015625)"/>
       <path id="LiberationSerif-74" d="M 1044 -63 
Q 744 -63 595 115 
Q 447 294 447 616 
L 447 2675 
L 63 2675 
L 63 2816 
L 453 2938 
L 769 3603 
L 966 3603 
L 966 2938 
L 1638 2938 
L 1638 2675 
L 966 2675 
L 966 672 
Q 966 469 1058 366 
Q 1150 263 1300 263 
Q 1481 263 1741 313 
L 1741 109 
Q 1631 34 1425 -14 
Q 1219 -63 1044 -63 
z
" transform="scale(0.015625)"/>
       <path id="LiberationSerif-69" d="M 1184 3897 
Q 1184 3759 1084 3659 
Q 984 3559 844 3559 
Q 706 3559 606 3659 
Q 506 3759 506 3897 
Q 506 4038 606 4138 
Q 706 4238 844 4238 
Q 984 4238 1084 4138 
Q 1184 4038 1184 3897 
z
M 1153 219 
L 1656 141 
L 1656 0 
L 134 0 
L 134 141 
L 634 219 
L 634 2719 
L 219 2797 
L 219 2938 
L 1153 2938 
L 1153 219 
z
" transform="scale(0.015625)"/>
       <path id="LiberationSerif-6f" d="M 2956 1484 
Q 2956 -63 1581 -63 
Q 919 -63 581 334 
Q 244 731 244 1484 
Q 244 2228 581 2622 
Q 919 3016 1606 3016 
Q 2275 3016 2615 2630 
Q 2956 2244 2956 1484 
z
M 2394 1484 
Q 2394 2159 2197 2462 
Q 2000 2766 1581 2766 
Q 1172 2766 989 2475 
Q 806 2184 806 1484 
Q 806 775 992 479 
Q 1178 184 1581 184 
Q 1994 184 2194 490 
Q 2394 797 2394 1484 
z
" transform="scale(0.015625)"/>
       <path id="LiberationSerif-6e" d="M 1013 2700 
Q 1253 2838 1525 2927 
Q 1797 3016 1978 3016 
Q 2359 3016 2553 2794 
Q 2747 2572 2747 2150 
L 2747 219 
L 3103 141 
L 3103 0 
L 1838 0 
L 1838 141 
L 2228 219 
L 2228 2094 
Q 2228 2353 2101 2501 
Q 1975 2650 1709 2650 
Q 1428 2650 1019 2559 
L 1019 219 
L 1416 141 
L 1416 0 
L 147 0 
L 147 141 
L 500 219 
L 500 2719 
L 147 2797 
L 147 2938 
L 984 2938 
L 1013 2700 
z
" transform="scale(0.015625)"/>
       <path id="LiberationSerif-5b" d="M 475 -856 
L 475 4441 
L 1900 4441 
L 1900 4294 
L 972 4166 
L 972 -581 
L 1900 -709 
L 1900 -856 
L 475 -856 
z
" transform="scale(0.015625)"/>
       <path id="LiberationSerif-25" d="M 1375 -63 
L 1031 -63 
L 3994 4256 
L 4341 4256 
L 1375 -63 
z
M 2253 3109 
Q 2253 1947 1222 1947 
Q 719 1947 469 2244 
Q 219 2541 219 3109 
Q 219 4256 1241 4256 
Q 1738 4256 1995 3968 
Q 2253 3681 2253 3109 
z
M 1766 3109 
Q 1766 3584 1636 3804 
Q 1506 4025 1222 4025 
Q 950 4025 826 3817 
Q 703 3609 703 3109 
Q 703 2597 828 2386 
Q 953 2175 1222 2175 
Q 1503 2175 1634 2398 
Q 1766 2622 1766 3109 
z
M 5113 1081 
Q 5113 -84 4084 -84 
Q 3581 -84 3329 212 
Q 3078 509 3078 1081 
Q 3078 1638 3331 1933 
Q 3584 2228 4103 2228 
Q 4600 2228 4856 1940 
Q 5113 1653 5113 1081 
z
M 4628 1081 
Q 4628 1556 4498 1776 
Q 4369 1997 4084 1997 
Q 3813 1997 3689 1789 
Q 3566 1581 3566 1081 
Q 3566 569 3691 358 
Q 3816 147 4084 147 
Q 4366 147 4497 370 
Q 4628 594 4628 1081 
z
" transform="scale(0.015625)"/>
       <path id="LiberationSerif-5d" d="M 231 -856 
L 231 -709 
L 1159 -581 
L 1159 4166 
L 231 4294 
L 231 4441 
L 1656 4441 
L 1656 -856 
L 231 -856 
z
" transform="scale(0.015625)"/>
      </defs>
      <use xlink:href="#LiberationSerif-45"/>
      <use xlink:href="#LiberationSerif-64" transform="translate(61.083984 0)"/>
      <use xlink:href="#LiberationSerif-67" transform="translate(111.083984 0)"/>
      <use xlink:href="#LiberationSerif-65" transform="translate(161.083984 0)"/>
      <use xlink:href="#LiberationSerif-20" transform="translate(205.46875 0)"/>
      <use xlink:href="#LiberationSerif-72" transform="translate(230.46875 0)"/>
      <use xlink:href="#LiberationSerif-65" transform="translate(263.769531 0)"/>
      <use xlink:href="#LiberationSerif-64" transform="translate(308.154297 0)"/>
      <use xlink:href="#LiberationSerif-75" transform="translate(358.154297 0)"/>
      <use xlink:href="#LiberationSerif-63" transform="translate(408.154297 0)"/>
      <use xlink:href="#LiberationSerif-74" transform="translate(452.539062 0)"/>
      <use xlink:href="#LiberationSerif-69" transform="translate(480.322266 0)"/>
      <use xlink:href="#LiberationSerif-6f" transform="translate(508.105469 0)"/>
      <use xlink:href="#LiberationSerif-6e" transform="translate(558.105469 0)"/>
      <use xlink:href="#LiberationSerif-20" transform="translate(608.105469 0)"/>
      <use xlink:href="#LiberationSerif-5b" transform="translate(633.105469 0)"/>
      <use xlink:href="#LiberationSerif-25" transform="translate(666.40625 0)"/>
      <use xlink:href="#LiberationSerif-5d" transform="translate(749.707031 0)"/>
     </g>
    </g>
   </g>
   <g id="matplotlib.axis_2">
    <g id="ytick_1">
     <g id="line2d_17">
      <path d="M 43.175625 276.256566 
L 400.295625 276.256566 
" clip-path="url(#p232c75db08)" style="fill: none; stroke: #808080; stroke-opacity: 0.4; stroke-width: 0.3; stroke-linecap: square"/>
     </g>
     <g id="line2d_18">
      <defs>
       <path id="me9f5da3c6a" d="M 0 0 
L -3.5 0 
" style="stroke: #000000; stroke-width: 0.8"/>
      </defs>
      <g>
       <use xlink:href="#me9f5da3c6a" x="43.175625" y="276.256566" style="stroke: #000000; stroke-width: 0.8"/>
      </g>
     </g>
     <g id="text_10">
      <!-- 0 -->
      <g transform="translate(31.175625 279.726098) scale(0.1 -0.1)">
       <use xlink:href="#LiberationSerif-30"/>
      </g>
     </g>
    </g>
    <g id="ytick_2">
     <g id="line2d_19">
      <path d="M 43.175625 226.966233 
L 400.295625 226.966233 
" clip-path="url(#p232c75db08)" style="fill: none; stroke: #808080; stroke-opacity: 0.4; stroke-width: 0.3; stroke-linecap: square"/>
     </g>
     <g id="line2d_20">
      <g>
       <use xlink:href="#me9f5da3c6a" x="43.175625" y="226.966233" style="stroke: #000000; stroke-width: 0.8"/>
      </g>
     </g>
     <g id="text_11">
      <!-- 50 -->
      <g transform="translate(26.175625 230.435764) scale(0.1 -0.1)">
       <use xlink:href="#LiberationSerif-35"/>
       <use xlink:href="#LiberationSerif-30" transform="translate(50 0)"/>
      </g>
     </g>
    </g>
    <g id="ytick_3">
     <g id="line2d_21">
      <path d="M 43.175625 177.675899 
L 400.295625 177.675899 
" clip-path="url(#p232c75db08)" style="fill: none; stroke: #808080; stroke-opacity: 0.4; stroke-width: 0.3; stroke-linecap: square"/>
     </g>
     <g id="line2d_22">
      <g>
       <use xlink:href="#me9f5da3c6a" x="43.175625" y="177.675899" style="stroke: #000000; stroke-width: 0.8"/>
      </g>
     </g>
     <g id="text_12">
      <!-- 100 -->
      <g transform="translate(21.175625 181.14543) scale(0.1 -0.1)">
       <use xlink:href="#LiberationSerif-31"/>
       <use xlink:href="#LiberationSerif-30" transform="translate(50 0)"/>
       <use xlink:href="#LiberationSerif-30" transform="translate(100 0)"/>
      </g>
     </g>
    </g>
    <g id="ytick_4">
     <g id="line2d_23">
      <path d="M 43.175625 128.385565 
L 400.295625 128.385565 
" clip-path="url(#p232c75db08)" style="fill: none; stroke: #808080; stroke-opacity: 0.4; stroke-width: 0.3; stroke-linecap: square"/>
     </g>
     <g id="line2d_24">
      <g>
       <use xlink:href="#me9f5da3c6a" x="43.175625" y="128.385565" style="stroke: #000000; stroke-width: 0.8"/>
      </g>
     </g>
     <g id="text_13">
      <!-- 150 -->
      <g transform="translate(21.175625 131.855097) scale(0.1 -0.1)">
       <use xlink:href="#LiberationSerif-31"/>
       <use xlink:href="#LiberationSerif-35" transform="translate(50 0)"/>
       <use xlink:href="#LiberationSerif-30" transform="translate(100 0)"/>
      </g>
     </g>
    </g>
    <g id="ytick_5">
     <g id="line2d_25">
      <path d="M 43.175625 79.095232 
L 400.295625 79.095232 
" clip-path="url(#p232c75db08)" style="fill: none; stroke: #808080; stroke-opacity: 0.4; stroke-width: 0.3; stroke-linecap: square"/>
     </g>
     <g id="line2d_26">
      <g>
       <use xlink:href="#me9f5da3c6a" x="43.175625" y="79.095232" style="stroke: #000000; stroke-width: 0.8"/>
      </g>
     </g>
     <g id="text_14">
      <!-- 200 -->
      <g transform="translate(21.175625 82.564763) scale(0.1 -0.1)">
       <use xlink:href="#LiberationSerif-32"/>
       <use xlink:href="#LiberationSerif-30" transform="translate(50 0)"/>
       <use xlink:href="#LiberationSerif-30" transform="translate(100 0)"/>
      </g>
     </g>
    </g>
    <g id="ytick_6">
     <g id="line2d_27">
      <path d="M 43.175625 29.804898 
L 400.295625 29.804898 
" clip-path="url(#p232c75db08)" style="fill: none; stroke: #808080; stroke-opacity: 0.4; stroke-width: 0.3; stroke-linecap: square"/>
     </g>
     <g id="line2d_28">
      <g>
       <use xlink:href="#me9f5da3c6a" x="43.175625" y="29.804898" style="stroke: #000000; stroke-width: 0.8"/>
      </g>
     </g>
     <g id="text_15">
      <!-- 250 -->
      <g transform="translate(21.175625 33.274429) scale(0.1 -0.1)">
       <use xlink:href="#LiberationSerif-32"/>
       <use xlink:href="#LiberationSerif-35" transform="translate(50 0)"/>
       <use xlink:href="#LiberationSerif-30" transform="translate(100 0)"/>
      </g>
     </g>
    </g>
    <g id="text_16">
     <!-- MIP solve time [s] -->
     <g transform="translate(14.832969 196.164984) rotate(-90) scale(0.11 -0.11)">
      <defs>
       <path id="LiberationSerif-4d" d="M 2694 0 
L 2584 0 
L 1050 3603 
L 1050 250 
L 1613 166 
L 1613 0 
L 184 0 
L 184 166 
L 722 250 
L 722 3944 
L 184 4025 
L 184 4191 
L 1453 4191 
L 2816 1003 
L 4303 4191 
L 5503 4191 
L 5503 4025 
L 4966 3944 
L 4966 250 
L 5503 166 
L 5503 0 
L 3803 0 
L 3803 166 
L 4366 250 
L 4366 3603 
L 2694 0 
z
" transform="scale(0.015625)"/>
       <path id="LiberationSerif-49" d="M 1369 250 
L 1906 166 
L 1906 0 
L 231 0 
L 231 166 
L 769 250 
L 769 3944 
L 231 4025 
L 231 4191 
L 1906 4191 
L 1906 4025 
L 1369 3944 
L 1369 250 
z
" transform="scale(0.015625)"/>
       <path id="LiberationSerif-50" d="M 2681 2950 
Q 2681 3466 2440 3687 
Q 2200 3909 1631 3909 
L 1325 3909 
L 1325 1925 
L 1650 1925 
Q 2178 1925 2429 2165 
Q 2681 2406 2681 2950 
z
M 1325 1644 
L 1325 250 
L 1991 166 
L 1991 0 
L 225 0 
L 225 166 
L 722 250 
L 722 3944 
L 184 4025 
L 184 4191 
L 1766 4191 
Q 3303 4191 3303 2956 
Q 3303 2313 2914 1978 
Q 2525 1644 1797 1644 
L 1325 1644 
z
" transform="scale(0.015625)"/>
       <path id="LiberationSerif-73" d="M 2259 825 
Q 2259 388 1982 162 
Q 1706 -63 1166 -63 
Q 947 -63 683 -17 
Q 419 28 269 84 
L 269 806 
L 409 806 
L 563 397 
Q 797 184 1172 184 
Q 1778 184 1778 703 
Q 1778 1084 1300 1247 
L 1022 1338 
Q 706 1441 562 1547 
Q 419 1653 341 1808 
Q 263 1963 263 2181 
Q 263 2569 527 2792 
Q 791 3016 1241 3016 
Q 1563 3016 2047 2919 
L 2047 2278 
L 1900 2278 
L 1769 2619 
Q 1603 2766 1247 2766 
Q 994 2766 861 2641 
Q 728 2516 728 2303 
Q 728 2125 848 2003 
Q 969 1881 1213 1800 
Q 1672 1644 1812 1572 
Q 1953 1500 2051 1395 
Q 2150 1291 2204 1156 
Q 2259 1022 2259 825 
z
" transform="scale(0.015625)"/>
       <path id="LiberationSerif-6c" d="M 1147 219 
L 1650 141 
L 1650 0 
L 128 0 
L 128 141 
L 628 219 
L 628 4225 
L 128 4300 
L 128 4441 
L 1147 4441 
L 1147 219 
z
" transform="scale(0.015625)"/>
       <path id="LiberationSerif-76" d="M 1741 -63 
L 1509 -63 
L 300 2719 
L 0 2797 
L 0 2938 
L 1369 2938 
L 1369 2797 
L 903 2713 
L 1759 684 
L 2578 2719 
L 2113 2797 
L 2113 2938 
L 3200 2938 
L 3200 2797 
L 2919 2731 
L 1741 -63 
z
" transform="scale(0.015625)"/>
       <path id="LiberationSerif-6d" d="M 1019 2700 
Q 1253 2834 1515 2925 
Q 1778 3016 1978 3016 
Q 2194 3016 2376 2934 
Q 2559 2853 2650 2675 
Q 2891 2809 3214 2912 
Q 3538 3016 3750 3016 
Q 4500 3016 4500 2150 
L 4500 219 
L 4878 141 
L 4878 0 
L 3544 0 
L 3544 141 
L 3981 219 
L 3981 2094 
Q 3981 2631 3481 2631 
Q 3400 2631 3292 2618 
Q 3184 2606 3076 2590 
Q 2969 2575 2870 2554 
Q 2772 2534 2706 2522 
Q 2759 2353 2759 2150 
L 2759 219 
L 3200 141 
L 3200 0 
L 1806 0 
L 1806 141 
L 2241 219 
L 2241 2094 
Q 2241 2353 2108 2492 
Q 1975 2631 1709 2631 
Q 1434 2631 1025 2541 
L 1025 219 
L 1466 141 
L 1466 0 
L 134 0 
L 134 141 
L 506 219 
L 506 2719 
L 134 2797 
L 134 2938 
L 994 2938 
L 1019 2700 
z
" transform="scale(0.015625)"/>
      </defs>
      <use xlink:href="#LiberationSerif-4d"/>
      <use xlink:href="#LiberationSerif-49" transform="translate(88.916016 0)"/>
      <use xlink:href="#LiberationSerif-50" transform="translate(122.216797 0)"/>
      <use xlink:href="#LiberationSerif-20" transform="translate(174.082031 0)"/>
      <use xlink:href="#LiberationSerif-73" transform="translate(199.082031 0)"/>
      <use xlink:href="#LiberationSerif-6f" transform="translate(237.998047 0)"/>
      <use xlink:href="#LiberationSerif-6c" transform="translate(287.998047 0)"/>
      <use xlink:href="#LiberationSerif-76" transform="translate(315.78125 0)"/>
      <use xlink:href="#LiberationSerif-65" transform="translate(365.78125 0)"/>
      <use xlink:href="#LiberationSerif-20" transform="translate(410.166016 0)"/>
      <use xlink:href="#LiberationSerif-74" transform="translate(435.166016 0)"/>
      <use xlink:href="#LiberationSerif-69" transform="translate(462.949219 0)"/>
      <use xlink:href="#LiberationSerif-6d" transform="translate(490.732422 0)"/>
      <use xlink:href="#LiberationSerif-65" transform="translate(568.515625 0)"/>
      <use xlink:href="#LiberationSerif-20" transform="translate(612.900391 0)"/>
      <use xlink:href="#LiberationSerif-5b" transform="translate(637.900391 0)"/>
      <use xlink:href="#LiberationSerif-73" transform="translate(671.201172 0)"/>
      <use xlink:href="#LiberationSerif-5d" transform="translate(710.117188 0)"/>
     </g>
    </g>
   </g>
   <g id="line2d_29">
    <path d="M 59.408352 275.9791 
L 82.597963 276.006271 
L 105.787573 276.015185 
L 128.977183 276.011989 
L 152.166794 275.996809 
L 175.356404 276.063779 
L 198.546015 276.089341 
L 221.735625 276.106342 
L 244.925235 276.103753 
L 268.114846 276.135494 
L 291.304456 276.153328 
L 314.494067 276.186497 
L 337.683677 276.206296 
L 360.873287 276.223313 
L 384.062898 276.229587 
" clip-path="url(#p232c75db08)" style="fill: none; stroke-dasharray: 3.7,1.6; stroke-dashoffset: 0; stroke: #999999"/>
    <defs>
     <path id="m36fb00c417" d="M 0 2.5 
C 0.663008 2.5 1.29895 2.236584 1.767767 1.767767 
C 2.236584 1.29895 2.5 0.663008 2.5 0 
C 2.5 -0.663008 2.236584 -1.29895 1.767767 -1.767767 
C 1.29895 -2.236584 0.663008 -2.5 0 -2.5 
C -0.663008 -2.5 -1.29895 -2.236584 -1.767767 -1.767767 
C -2.236584 -1.29895 -2.5 -0.663008 -2.5 0 
C -2.5 0.663008 -2.236584 1.29895 -1.767767 1.767767 
C -1.29895 2.236584 -0.663008 2.5 0 2.5 
z
" style="stroke: #999999"/>
    </defs>
    <g clip-path="url(#p232c75db08)">
     <use xlink:href="#m36fb00c417" x="59.408352" y="275.9791" style="fill: #999999; stroke: #999999"/>
     <use xlink:href="#m36fb00c417" x="82.597963" y="276.006271" style="fill: #999999; stroke: #999999"/>
     <use xlink:href="#m36fb00c417" x="105.787573" y="276.015185" style="fill: #999999; stroke: #999999"/>
     <use xlink:href="#m36fb00c417" x="128.977183" y="276.011989" style="fill: #999999; stroke: #999999"/>
     <use xlink:href="#m36fb00c417" x="152.166794" y="275.996809" style="fill: #999999; stroke: #999999"/>
     <use xlink:href="#m36fb00c417" x="175.356404" y="276.063779" style="fill: #999999; stroke: #999999"/>
     <use xlink:href="#m36fb00c417" x="198.546015" y="276.089341" style="fill: #999999; stroke: #999999"/>
     <use xlink:href="#m36fb00c417" x="221.735625" y="276.106342" style="fill: #999999; stroke: #999999"/>
     <use xlink:href="#m36fb00c417" x="244.925235" y="276.103753" style="fill: #999999; stroke: #999999"/>
     <use xlink:href="#m36fb00c417" x="268.114846" y="276.135494" style="fill: #999999; stroke: #999999"/>
     <use xlink:href="#m36fb00c417" x="291.304456" y="276.153328" style="fill: #999999; stroke: #999999"/>
     <use xlink:href="#m36fb00c417" x="314.494067" y="276.186497" style="fill: #999999; stroke: #999999"/>
     <use xlink:href="#m36fb00c417" x="337.683677" y="276.206296" style="fill: #999999; stroke: #999999"/>
     <use xlink:href="#m36fb00c417" x="360.873287" y="276.223313" style="fill: #999999; stroke: #999999"/>
     <use xlink:href="#m36fb00c417" x="384.062898" y="276.229587" style="fill: #999999; stroke: #999999"/>
    </g>
   </g>
   <g id="line2d_30">
    <path d="M 59.408352 268.179971 
L 82.597963 269.179453 
L 105.787573 269.264132 
L 128.977183 270.701831 
L 152.166794 269.803559 
L 175.356404 271.122758 
L 198.546015 270.537975 
L 221.735625 270.597036 
L 244.925235 271.864275 
L 268.114846 271.822821 
L 291.304456 273.579986 
L 314.494067 273.760912 
L 337.683677 273.12133 
L 360.873287 274.177419 
L 384.062898 274.289709 
" clip-path="url(#p232c75db08)" style="fill: none; stroke-dasharray: 3.7,1.6; stroke-dashoffset: 0; stroke: #0065bd"/>
    <defs>
     <path id="mfba7222b9b" d="M -2.5 2.5 
L 2.5 2.5 
L 2.5 -2.5 
L -2.5 -2.5 
z
" style="stroke: #0065bd; stroke-linejoin: miter"/>
    </defs>
    <g clip-path="url(#p232c75db08)">
     <use xlink:href="#mfba7222b9b" x="59.408352" y="268.179971" style="fill: #0065bd; stroke: #0065bd; stroke-linejoin: miter"/>
     <use xlink:href="#mfba7222b9b" x="82.597963" y="269.179453" style="fill: #0065bd; stroke: #0065bd; stroke-linejoin: miter"/>
     <use xlink:href="#mfba7222b9b" x="105.787573" y="269.264132" style="fill: #0065bd; stroke: #0065bd; stroke-linejoin: miter"/>
     <use xlink:href="#mfba7222b9b" x="128.977183" y="270.701831" style="fill: #0065bd; stroke: #0065bd; stroke-linejoin: miter"/>
     <use xlink:href="#mfba7222b9b" x="152.166794" y="269.803559" style="fill: #0065bd; stroke: #0065bd; stroke-linejoin: miter"/>
     <use xlink:href="#mfba7222b9b" x="175.356404" y="271.122758" style="fill: #0065bd; stroke: #0065bd; stroke-linejoin: miter"/>
     <use xlink:href="#mfba7222b9b" x="198.546015" y="270.537975" style="fill: #0065bd; stroke: #0065bd; stroke-linejoin: miter"/>
     <use xlink:href="#mfba7222b9b" x="221.735625" y="270.597036" style="fill: #0065bd; stroke: #0065bd; stroke-linejoin: miter"/>
     <use xlink:href="#mfba7222b9b" x="244.925235" y="271.864275" style="fill: #0065bd; stroke: #0065bd; stroke-linejoin: miter"/>
     <use xlink:href="#mfba7222b9b" x="268.114846" y="271.822821" style="fill: #0065bd; stroke: #0065bd; stroke-linejoin: miter"/>
     <use xlink:href="#mfba7222b9b" x="291.304456" y="273.579986" style="fill: #0065bd; stroke: #0065bd; stroke-linejoin: miter"/>
     <use xlink:href="#mfba7222b9b" x="314.494067" y="273.760912" style="fill: #0065bd; stroke: #0065bd; stroke-linejoin: miter"/>
     <use xlink:href="#mfba7222b9b" x="337.683677" y="273.12133" style="fill: #0065bd; stroke: #0065bd; stroke-linejoin: miter"/>
     <use xlink:href="#mfba7222b9b" x="360.873287" y="274.177419" style="fill: #0065bd; stroke: #0065bd; stroke-linejoin: miter"/>
     <use xlink:href="#mfba7222b9b" x="384.062898" y="274.289709" style="fill: #0065bd; stroke: #0065bd; stroke-linejoin: miter"/>
    </g>
   </g>
   <g id="line2d_31">
    <path d="M 59.408352 263.362622 
L 82.597963 261.640914 
L 105.787573 267.866291 
L 128.977183 268.538895 
L 152.166794 270.188416 
L 175.356404 267.763036 
L 198.546015 269.729555 
L 221.735625 271.487853 
L 244.925235 270.134357 
L 268.114846 272.810331 
L 291.304456 273.65552 
L 314.494067 272.870939 
L 337.683677 273.612816 
L 360.873287 274.17241 
L 384.062898 273.54308 
" clip-path="url(#p232c75db08)" style="fill: none; stroke-dasharray: 3.7,1.6; stroke-dashoffset: 0; stroke: #000000"/>
    <defs>
     <path id="m513cb102f5" d="M -0 2.5 
L 2.5 -2.5 
L -2.5 -2.5 
z
" style="stroke: #000000; stroke-linejoin: miter"/>
    </defs>
    <g clip-path="url(#p232c75db08)">
     <use xlink:href="#m513cb102f5" x="59.408352" y="263.362622" style="stroke: #000000; stroke-linejoin: miter"/>
     <use xlink:href="#m513cb102f5" x="82.597963" y="261.640914" style="stroke: #000000; stroke-linejoin: miter"/>
     <use xlink:href="#m513cb102f5" x="105.787573" y="267.866291" style="stroke: #000000; stroke-linejoin: miter"/>
     <use xlink:href="#m513cb102f5" x="128.977183" y="268.538895" style="stroke: #000000; stroke-linejoin: miter"/>
     <use xlink:href="#m513cb102f5" x="152.166794" y="270.188416" style="stroke: #000000; stroke-linejoin: miter"/>
     <use xlink:href="#m513cb102f5" x="175.356404" y="267.763036" style="stroke: #000000; stroke-linejoin: miter"/>
     <use xlink:href="#m513cb102f5" x="198.546015" y="269.729555" style="stroke: #000000; stroke-linejoin: miter"/>
     <use xlink:href="#m513cb102f5" x="221.735625" y="271.487853" style="stroke: #000000; stroke-linejoin: miter"/>
     <use xlink:href="#m513cb102f5" x="244.925235" y="270.134357" style="stroke: #000000; stroke-linejoin: miter"/>
     <use xlink:href="#m513cb102f5" x="268.114846" y="272.810331" style="stroke: #000000; stroke-linejoin: miter"/>
     <use xlink:href="#m513cb102f5" x="291.304456" y="273.65552" style="stroke: #000000; stroke-linejoin: miter"/>
     <use xlink:href="#m513cb102f5" x="314.494067" y="272.870939" style="stroke: #000000; stroke-linejoin: miter"/>
     <use xlink:href="#m513cb102f5" x="337.683677" y="273.612816" style="stroke: #000000; stroke-linejoin: miter"/>
     <use xlink:href="#m513cb102f5" x="360.873287" y="274.17241" style="stroke: #000000; stroke-linejoin: miter"/>
     <use xlink:href="#m513cb102f5" x="384.062898" y="273.54308" style="stroke: #000000; stroke-linejoin: miter"/>
    </g>
   </g>
   <g id="line2d_32">
    <path d="M 59.408352 179.303755 
L 82.597963 257.200828 
L 105.787573 261.501012 
L 128.977183 257.833243 
L 152.166794 261.659944 
L 175.356404 269.944381 
L 198.546015 268.982165 
L 221.735625 270.402591 
L 244.925235 272.289634 
L 268.114846 272.711798 
L 291.304456 273.304273 
L 314.494067 274.085692 
L 337.683677 274.448335 
L 360.873287 273.844899 
L 384.062898 275.058692 
" clip-path="url(#p232c75db08)" style="fill: none; stroke-dasharray: 3.7,1.6; stroke-dashoffset: 0; stroke: #9fba36"/>
    <defs>
     <path id="m6fe0f84fac" d="M 0 -2.5 
L -2.5 2.5 
L 2.5 2.5 
z
" style="stroke: #9fba36; stroke-linejoin: miter"/>
    </defs>
    <g clip-path="url(#p232c75db08)">
     <use xlink:href="#m6fe0f84fac" x="59.408352" y="179.303755" style="fill: #9fba36; stroke: #9fba36; stroke-linejoin: miter"/>
     <use xlink:href="#m6fe0f84fac" x="82.597963" y="257.200828" style="fill: #9fba36; stroke: #9fba36; stroke-linejoin: miter"/>
     <use xlink:href="#m6fe0f84fac" x="105.787573" y="261.501012" style="fill: #9fba36; stroke: #9fba36; stroke-linejoin: miter"/>
     <use xlink:href="#m6fe0f84fac" x="128.977183" y="257.833243" style="fill: #9fba36; stroke: #9fba36; stroke-linejoin: miter"/>
     <use xlink:href="#m6fe0f84fac" x="152.166794" y="261.659944" style="fill: #9fba36; stroke: #9fba36; stroke-linejoin: miter"/>
     <use xlink:href="#m6fe0f84fac" x="175.356404" y="269.944381" style="fill: #9fba36; stroke: #9fba36; stroke-linejoin: miter"/>
     <use xlink:href="#m6fe0f84fac" x="198.546015" y="268.982165" style="fill: #9fba36; stroke: #9fba36; stroke-linejoin: miter"/>
     <use xlink:href="#m6fe0f84fac" x="221.735625" y="270.402591" style="fill: #9fba36; stroke: #9fba36; stroke-linejoin: miter"/>
     <use xlink:href="#m6fe0f84fac" x="244.925235" y="272.289634" style="fill: #9fba36; stroke: #9fba36; stroke-linejoin: miter"/>
     <use xlink:href="#m6fe0f84fac" x="268.114846" y="272.711798" style="fill: #9fba36; stroke: #9fba36; stroke-linejoin: miter"/>
     <use xlink:href="#m6fe0f84fac" x="291.304456" y="273.304273" style="fill: #9fba36; stroke: #9fba36; stroke-linejoin: miter"/>
     <use xlink:href="#m6fe0f84fac" x="314.494067" y="274.085692" style="fill: #9fba36; stroke: #9fba36; stroke-linejoin: miter"/>
     <use xlink:href="#m6fe0f84fac" x="337.683677" y="274.448335" style="fill: #9fba36; stroke: #9fba36; stroke-linejoin: miter"/>
     <use xlink:href="#m6fe0f84fac" x="360.873287" y="273.844899" style="fill: #9fba36; stroke: #9fba36; stroke-linejoin: miter"/>
     <use xlink:href="#m6fe0f84fac" x="384.062898" y="275.058692" style="fill: #9fba36; stroke: #9fba36; stroke-linejoin: miter"/>
    </g>
   </g>
   <g id="line2d_33">
    <path d="M 59.408352 198.082561 
L 82.597963 251.17206 
L 105.787573 243.838005 
L 128.977183 250.233314 
L 152.166794 261.195046 
L 175.356404 256.44973 
L 198.546015 267.372758 
L 221.735625 266.861551 
L 244.925235 269.763226 
L 268.114846 270.964665 
L 291.304456 272.985486 
L 314.494067 273.56643 
L 337.683677 274.121009 
L 360.873287 274.436594 
L 384.062898 274.828 
" clip-path="url(#p232c75db08)" style="fill: none; stroke-dasharray: 3.7,1.6; stroke-dashoffset: 0; stroke: #999999"/>
    <defs>
     <path id="mcffc5e0fac" d="M 0 -2.5 
L -2.377641 -0.772542 
L -1.469463 2.022542 
L 1.469463 2.022542 
L 2.377641 -0.772542 
z
" style="stroke: #999999; stroke-linejoin: miter"/>
    </defs>
    <g clip-path="url(#p232c75db08)">
     <use xlink:href="#mcffc5e0fac" x="59.408352" y="198.082561" style="fill: #999999; stroke: #999999; stroke-linejoin: miter"/>
     <use xlink:href="#mcffc5e0fac" x="82.597963" y="251.17206" style="fill: #999999; stroke: #999999; stroke-linejoin: miter"/>
     <use xlink:href="#mcffc5e0fac" x="105.787573" y="243.838005" style="fill: #999999; stroke: #999999; stroke-linejoin: miter"/>
     <use xlink:href="#mcffc5e0fac" x="128.977183" y="250.233314" style="fill: #999999; stroke: #999999; stroke-linejoin: miter"/>
     <use xlink:href="#mcffc5e0fac" x="152.166794" y="261.195046" style="fill: #999999; stroke: #999999; stroke-linejoin: miter"/>
     <use xlink:href="#mcffc5e0fac" x="175.356404" y="256.44973" style="fill: #999999; stroke: #999999; stroke-linejoin: miter"/>
     <use xlink:href="#mcffc5e0fac" x="198.546015" y="267.372758" style="fill: #999999; stroke: #999999; stroke-linejoin: miter"/>
     <use xlink:href="#mcffc5e0fac" x="221.735625" y="266.861551" style="fill: #999999; stroke: #999999; stroke-linejoin: miter"/>
     <use xlink:href="#mcffc5e0fac" x="244.925235" y="269.763226" style="fill: #999999; stroke: #999999; stroke-linejoin: miter"/>
     <use xlink:href="#mcffc5e0fac" x="268.114846" y="270.964665" style="fill: #999999; stroke: #999999; stroke-linejoin: miter"/>
     <use xlink:href="#mcffc5e0fac" x="291.304456" y="272.985486" style="fill: #999999; stroke: #999999; stroke-linejoin: miter"/>
     <use xlink:href="#mcffc5e0fac" x="314.494067" y="273.56643" style="fill: #999999; stroke: #999999; stroke-linejoin: miter"/>
     <use xlink:href="#mcffc5e0fac" x="337.683677" y="274.121009" style="fill: #999999; stroke: #999999; stroke-linejoin: miter"/>
     <use xlink:href="#mcffc5e0fac" x="360.873287" y="274.436594" style="fill: #999999; stroke: #999999; stroke-linejoin: miter"/>
     <use xlink:href="#mcffc5e0fac" x="384.062898" y="274.828" style="fill: #999999; stroke: #999999; stroke-linejoin: miter"/>
    </g>
   </g>
   <g id="line2d_34">
    <path d="M 59.408352 197.988427 
L 82.597963 195.984937 
L 105.787573 232.267241 
L 128.977183 240.086981 
L 152.166794 248.236429 
L 175.356404 262.904587 
L 198.546015 266.156714 
L 221.735625 263.326329 
L 244.925235 270.520602 
L 268.114846 269.332957 
L 291.304456 273.425011 
L 314.494067 273.926772 
L 337.683677 273.0715 
L 360.873287 274.349266 
L 384.062898 274.75156 
" clip-path="url(#p232c75db08)" style="fill: none; stroke-dasharray: 3.7,1.6; stroke-dashoffset: 0; stroke: #0065bd"/>
    <defs>
     <path id="m201bd63c71" d="M 0 2.5 
C 0.663008 2.5 1.29895 2.236584 1.767767 1.767767 
C 2.236584 1.29895 2.5 0.663008 2.5 0 
C 2.5 -0.663008 2.236584 -1.29895 1.767767 -1.767767 
C 1.29895 -2.236584 0.663008 -2.5 0 -2.5 
C -0.663008 -2.5 -1.29895 -2.236584 -1.767767 -1.767767 
C -2.236584 -1.29895 -2.5 -0.663008 -2.5 0 
C -2.5 0.663008 -2.236584 1.29895 -1.767767 1.767767 
C -1.29895 2.236584 -0.663008 2.5 0 2.5 
z
" style="stroke: #0065bd"/>
    </defs>
    <g clip-path="url(#p232c75db08)">
     <use xlink:href="#m201bd63c71" x="59.408352" y="197.988427" style="fill: #0065bd; stroke: #0065bd"/>
     <use xlink:href="#m201bd63c71" x="82.597963" y="195.984937" style="fill: #0065bd; stroke: #0065bd"/>
     <use xlink:href="#m201bd63c71" x="105.787573" y="232.267241" style="fill: #0065bd; stroke: #0065bd"/>
     <use xlink:href="#m201bd63c71" x="128.977183" y="240.086981" style="fill: #0065bd; stroke: #0065bd"/>
     <use xlink:href="#m201bd63c71" x="152.166794" y="248.236429" style="fill: #0065bd; stroke: #0065bd"/>
     <use xlink:href="#m201bd63c71" x="175.356404" y="262.904587" style="fill: #0065bd; stroke: #0065bd"/>
     <use xlink:href="#m201bd63c71" x="198.546015" y="266.156714" style="fill: #0065bd; stroke: #0065bd"/>
     <use xlink:href="#m201bd63c71" x="221.735625" y="263.326329" style="fill: #0065bd; stroke: #0065bd"/>
     <use xlink:href="#m201bd63c71" x="244.925235" y="270.520602" style="fill: #0065bd; stroke: #0065bd"/>
     <use xlink:href="#m201bd63c71" x="268.114846" y="269.332957" style="fill: #0065bd; stroke: #0065bd"/>
     <use xlink:href="#m201bd63c71" x="291.304456" y="273.425011" style="fill: #0065bd; stroke: #0065bd"/>
     <use xlink:href="#m201bd63c71" x="314.494067" y="273.926772" style="fill: #0065bd; stroke: #0065bd"/>
     <use xlink:href="#m201bd63c71" x="337.683677" y="273.0715" style="fill: #0065bd; stroke: #0065bd"/>
     <use xlink:href="#m201bd63c71" x="360.873287" y="274.349266" style="fill: #0065bd; stroke: #0065bd"/>
     <use xlink:href="#m201bd63c71" x="384.062898" y="274.75156" style="fill: #0065bd; stroke: #0065bd"/>
    </g>
   </g>
   <g id="line2d_35">
    <path d="M 59.408352 225.30911 
L 82.597963 167.517495 
L 105.787573 201.993019 
L 128.977183 219.607504 
L 152.166794 234.432569 
L 175.356404 241.097034 
L 198.546015 253.266037 
L 221.735625 258.683159 
L 244.925235 268.048794 
L 268.114846 268.105162 
L 291.304456 273.453566 
L 314.494067 273.108917 
L 337.683677 274.239031 
L 360.873287 274.761755 
L 384.062898 274.734935 
" clip-path="url(#p232c75db08)" style="fill: none; stroke-dasharray: 3.7,1.6; stroke-dashoffset: 0; stroke: #000000"/>
    <defs>
     <path id="m6c4acb82ed" d="M -2.5 2.5 
L 2.5 2.5 
L 2.5 -2.5 
L -2.5 -2.5 
z
" style="stroke: #000000; stroke-linejoin: miter"/>
    </defs>
    <g clip-path="url(#p232c75db08)">
     <use xlink:href="#m6c4acb82ed" x="59.408352" y="225.30911" style="stroke: #000000; stroke-linejoin: miter"/>
     <use xlink:href="#m6c4acb82ed" x="82.597963" y="167.517495" style="stroke: #000000; stroke-linejoin: miter"/>
     <use xlink:href="#m6c4acb82ed" x="105.787573" y="201.993019" style="stroke: #000000; stroke-linejoin: miter"/>
     <use xlink:href="#m6c4acb82ed" x="128.977183" y="219.607504" style="stroke: #000000; stroke-linejoin: miter"/>
     <use xlink:href="#m6c4acb82ed" x="152.166794" y="234.432569" style="stroke: #000000; stroke-linejoin: miter"/>
     <use xlink:href="#m6c4acb82ed" x="175.356404" y="241.097034" style="stroke: #000000; stroke-linejoin: miter"/>
     <use xlink:href="#m6c4acb82ed" x="198.546015" y="253.266037" style="stroke: #000000; stroke-linejoin: miter"/>
     <use xlink:href="#m6c4acb82ed" x="221.735625" y="258.683159" style="stroke: #000000; stroke-linejoin: miter"/>
     <use xlink:href="#m6c4acb82ed" x="244.925235" y="268.048794" style="stroke: #000000; stroke-linejoin: miter"/>
     <use xlink:href="#m6c4acb82ed" x="268.114846" y="268.105162" style="stroke: #000000; stroke-linejoin: miter"/>
     <use xlink:href="#m6c4acb82ed" x="291.304456" y="273.453566" style="stroke: #000000; stroke-linejoin: miter"/>
     <use xlink:href="#m6c4acb82ed" x="314.494067" y="273.108917" style="stroke: #000000; stroke-linejoin: miter"/>
     <use xlink:href="#m6c4acb82ed" x="337.683677" y="274.239031" style="stroke: #000000; stroke-linejoin: miter"/>
     <use xlink:href="#m6c4acb82ed" x="360.873287" y="274.761755" style="stroke: #000000; stroke-linejoin: miter"/>
     <use xlink:href="#m6c4acb82ed" x="384.062898" y="274.734935" style="stroke: #000000; stroke-linejoin: miter"/>
    </g>
   </g>
   <g id="line2d_36">
    <path d="M 59.408352 211.759368 
L 82.597963 178.385243 
L 105.787573 179.038687 
L 128.977183 212.229519 
L 152.166794 237.449082 
L 175.356404 247.963855 
L 198.546015 250.606822 
L 221.735625 253.263527 
L 244.925235 264.395537 
L 268.114846 266.853105 
L 291.304456 271.466118 
L 314.494067 272.121072 
L 337.683677 273.797517 
L 360.873287 274.433023 
L 384.062898 275.43466 
" clip-path="url(#p232c75db08)" style="fill: none; stroke-dasharray: 3.7,1.6; stroke-dashoffset: 0; stroke: #9fba36"/>
    <defs>
     <path id="mf8e4b05cb9" d="M -0 2.5 
L 2.5 -2.5 
L -2.5 -2.5 
z
" style="stroke: #9fba36; stroke-linejoin: miter"/>
    </defs>
    <g clip-path="url(#p232c75db08)">
     <use xlink:href="#mf8e4b05cb9" x="59.408352" y="211.759368" style="fill: #9fba36; stroke: #9fba36; stroke-linejoin: miter"/>
     <use xlink:href="#mf8e4b05cb9" x="82.597963" y="178.385243" style="fill: #9fba36; stroke: #9fba36; stroke-linejoin: miter"/>
     <use xlink:href="#mf8e4b05cb9" x="105.787573" y="179.038687" style="fill: #9fba36; stroke: #9fba36; stroke-linejoin: miter"/>
     <use xlink:href="#mf8e4b05cb9" x="128.977183" y="212.229519" style="fill: #9fba36; stroke: #9fba36; stroke-linejoin: miter"/>
     <use xlink:href="#mf8e4b05cb9" x="152.166794" y="237.449082" style="fill: #9fba36; stroke: #9fba36; stroke-linejoin: miter"/>
     <use xlink:href="#mf8e4b05cb9" x="175.356404" y="247.963855" style="fill: #9fba36; stroke: #9fba36; stroke-linejoin: miter"/>
     <use xlink:href="#mf8e4b05cb9" x="198.546015" y="250.606822" style="fill: #9fba36; stroke: #9fba36; stroke-linejoin: miter"/>
     <use xlink:href="#mf8e4b05cb9" x="221.735625" y="253.263527" style="fill: #9fba36; stroke: #9fba36; stroke-linejoin: miter"/>
     <use xlink:href="#mf8e4b05cb9" x="244.925235" y="264.395537" style="fill: #9fba36; stroke: #9fba36; stroke-linejoin: miter"/>
     <use xlink:href="#mf8e4b05cb9" x="268.114846" y="266.853105" style="fill: #9fba36; stroke: #9fba36; stroke-linejoin: miter"/>
     <use xlink:href="#mf8e4b05cb9" x="291.304456" y="271.466118" style="fill: #9fba36; stroke: #9fba36; stroke-linejoin: miter"/>
     <use xlink:href="#mf8e4b05cb9" x="314.494067" y="272.121072" style="fill: #9fba36; stroke: #9fba36; stroke-linejoin: miter"/>
     <use xlink:href="#mf8e4b05cb9" x="337.683677" y="273.797517" style="fill: #9fba36; stroke: #9fba36; stroke-linejoin: miter"/>
     <use xlink:href="#mf8e4b05cb9" x="360.873287" y="274.433023" style="fill: #9fba36; stroke: #9fba36; stroke-linejoin: miter"/>
     <use xlink:href="#mf8e4b05cb9" x="384.062898" y="275.43466" style="fill: #9fba36; stroke: #9fba36; stroke-linejoin: miter"/>
    </g>
   </g>
   <g id="line2d_37">
    <path d="M 59.408352 55.623534 
L 82.597963 80.393161 
L 105.787573 156.028174 
L 128.977183 189.814 
L 152.166794 199.610797 
L 175.356404 215.408534 
L 198.546015 221.248902 
L 221.735625 239.872278 
L 244.925235 253.847036 
L 268.114846 258.623377 
L 291.304456 265.921412 
L 314.494067 270.968688 
L 337.683677 273.718568 
L 360.873287 273.826539 
L 384.062898 274.651195 
" clip-path="url(#p232c75db08)" style="fill: none; stroke-dasharray: 3.7,1.6; stroke-dashoffset: 0; stroke: #999999"/>
    <defs>
     <path id="m9de47c2ff8" d="M 0 -2.5 
L -2.5 2.5 
L 2.5 2.5 
z
" style="stroke: #999999; stroke-linejoin: miter"/>
    </defs>
    <g clip-path="url(#p232c75db08)">
     <use xlink:href="#m9de47c2ff8" x="59.408352" y="55.623534" style="fill: #999999; stroke: #999999; stroke-linejoin: miter"/>
     <use xlink:href="#m9de47c2ff8" x="82.597963" y="80.393161" style="fill: #999999; stroke: #999999; stroke-linejoin: miter"/>
     <use xlink:href="#m9de47c2ff8" x="105.787573" y="156.028174" style="fill: #999999; stroke: #999999; stroke-linejoin: miter"/>
     <use xlink:href="#m9de47c2ff8" x="128.977183" y="189.814" style="fill: #999999; stroke: #999999; stroke-linejoin: miter"/>
     <use xlink:href="#m9de47c2ff8" x="152.166794" y="199.610797" style="fill: #999999; stroke: #999999; stroke-linejoin: miter"/>
     <use xlink:href="#m9de47c2ff8" x="175.356404" y="215.408534" style="fill: #999999; stroke: #999999; stroke-linejoin: miter"/>
     <use xlink:href="#m9de47c2ff8" x="198.546015" y="221.248902" style="fill: #999999; stroke: #999999; stroke-linejoin: miter"/>
     <use xlink:href="#m9de47c2ff8" x="221.735625" y="239.872278" style="fill: #999999; stroke: #999999; stroke-linejoin: miter"/>
     <use xlink:href="#m9de47c2ff8" x="244.925235" y="253.847036" style="fill: #999999; stroke: #999999; stroke-linejoin: miter"/>
     <use xlink:href="#m9de47c2ff8" x="268.114846" y="258.623377" style="fill: #999999; stroke: #999999; stroke-linejoin: miter"/>
     <use xlink:href="#m9de47c2ff8" x="291.304456" y="265.921412" style="fill: #999999; stroke: #999999; stroke-linejoin: miter"/>
     <use xlink:href="#m9de47c2ff8" x="314.494067" y="270.968688" style="fill: #999999; stroke: #999999; stroke-linejoin: miter"/>
     <use xlink:href="#m9de47c2ff8" x="337.683677" y="273.718568" style="fill: #999999; stroke: #999999; stroke-linejoin: miter"/>
     <use xlink:href="#m9de47c2ff8" x="360.873287" y="273.826539" style="fill: #999999; stroke: #999999; stroke-linejoin: miter"/>
     <use xlink:href="#m9de47c2ff8" x="384.062898" y="274.651195" style="fill: #999999; stroke: #999999; stroke-linejoin: miter"/>
    </g>
   </g>
   <g id="line2d_38">
    <path d="M 59.408352 35.884378 
L 82.597963 98.363648 
L 105.787573 129.086217 
L 128.977183 162.423215 
L 152.166794 174.676709 
L 175.356404 195.251267 
L 198.546015 209.500464 
L 221.735625 219.357203 
L 244.925235 242.751672 
L 268.114846 249.507371 
L 291.304456 262.16823 
L 314.494067 266.614742 
L 337.683677 272.159343 
L 360.873287 273.336101 
L 384.062898 273.680959 
" clip-path="url(#p232c75db08)" style="fill: none; stroke-dasharray: 3.7,1.6; stroke-dashoffset: 0; stroke: #0065bd"/>
    <defs>
     <path id="m7993ff0ef8" d="M 0 -2.5 
L -2.377641 -0.772542 
L -1.469463 2.022542 
L 1.469463 2.022542 
L 2.377641 -0.772542 
z
" style="stroke: #0065bd; stroke-linejoin: miter"/>
    </defs>
    <g clip-path="url(#p232c75db08)">
     <use xlink:href="#m7993ff0ef8" x="59.408352" y="35.884378" style="fill: #0065bd; stroke: #0065bd; stroke-linejoin: miter"/>
     <use xlink:href="#m7993ff0ef8" x="82.597963" y="98.363648" style="fill: #0065bd; stroke: #0065bd; stroke-linejoin: miter"/>
     <use xlink:href="#m7993ff0ef8" x="105.787573" y="129.086217" style="fill: #0065bd; stroke: #0065bd; stroke-linejoin: miter"/>
     <use xlink:href="#m7993ff0ef8" x="128.977183" y="162.423215" style="fill: #0065bd; stroke: #0065bd; stroke-linejoin: miter"/>
     <use xlink:href="#m7993ff0ef8" x="152.166794" y="174.676709" style="fill: #0065bd; stroke: #0065bd; stroke-linejoin: miter"/>
     <use xlink:href="#m7993ff0ef8" x="175.356404" y="195.251267" style="fill: #0065bd; stroke: #0065bd; stroke-linejoin: miter"/>
     <use xlink:href="#m7993ff0ef8" x="198.546015" y="209.500464" style="fill: #0065bd; stroke: #0065bd; stroke-linejoin: miter"/>
     <use xlink:href="#m7993ff0ef8" x="221.735625" y="219.357203" style="fill: #0065bd; stroke: #0065bd; stroke-linejoin: miter"/>
     <use xlink:href="#m7993ff0ef8" x="244.925235" y="242.751672" style="fill: #0065bd; stroke: #0065bd; stroke-linejoin: miter"/>
     <use xlink:href="#m7993ff0ef8" x="268.114846" y="249.507371" style="fill: #0065bd; stroke: #0065bd; stroke-linejoin: miter"/>
     <use xlink:href="#m7993ff0ef8" x="291.304456" y="262.16823" style="fill: #0065bd; stroke: #0065bd; stroke-linejoin: miter"/>
     <use xlink:href="#m7993ff0ef8" x="314.494067" y="266.614742" style="fill: #0065bd; stroke: #0065bd; stroke-linejoin: miter"/>
     <use xlink:href="#m7993ff0ef8" x="337.683677" y="272.159343" style="fill: #0065bd; stroke: #0065bd; stroke-linejoin: miter"/>
     <use xlink:href="#m7993ff0ef8" x="360.873287" y="273.336101" style="fill: #0065bd; stroke: #0065bd; stroke-linejoin: miter"/>
     <use xlink:href="#m7993ff0ef8" x="384.062898" y="273.680959" style="fill: #0065bd; stroke: #0065bd; stroke-linejoin: miter"/>
    </g>
   </g>
   <g id="line2d_39">
    <path d="M 59.408352 34.316781 
L 82.597963 97.697589 
L 105.787573 158.18662 
L 128.977183 192.768938 
L 152.166794 207.771793 
L 175.356404 225.336874 
L 198.546015 232.039876 
L 221.735625 249.027702 
L 244.925235 253.341376 
L 268.114846 261.91252 
L 291.304456 266.125179 
L 314.494067 269.74339 
L 337.683677 271.830841 
L 360.873287 273.791871 
L 384.062898 274.452214 
" clip-path="url(#p232c75db08)" style="fill: none; stroke-dasharray: 3.7,1.6; stroke-dashoffset: 0; stroke: #000000"/>
    <defs>
     <path id="mc04a01121f" d="M 0 2.5 
C 0.663008 2.5 1.29895 2.236584 1.767767 1.767767 
C 2.236584 1.29895 2.5 0.663008 2.5 0 
C 2.5 -0.663008 2.236584 -1.29895 1.767767 -1.767767 
C 1.29895 -2.236584 0.663008 -2.5 0 -2.5 
C -0.663008 -2.5 -1.29895 -2.236584 -1.767767 -1.767767 
C -2.236584 -1.29895 -2.5 -0.663008 -2.5 0 
C -2.5 0.663008 -2.236584 1.29895 -1.767767 1.767767 
C -1.29895 2.236584 -0.663008 2.5 0 2.5 
z
" style="stroke: #000000"/>
    </defs>
    <g clip-path="url(#p232c75db08)">
     <use xlink:href="#mc04a01121f" x="59.408352" y="34.316781" style="stroke: #000000"/>
     <use xlink:href="#mc04a01121f" x="82.597963" y="97.697589" style="stroke: #000000"/>
     <use xlink:href="#mc04a01121f" x="105.787573" y="158.18662" style="stroke: #000000"/>
     <use xlink:href="#mc04a01121f" x="128.977183" y="192.768938" style="stroke: #000000"/>
     <use xlink:href="#mc04a01121f" x="152.166794" y="207.771793" style="stroke: #000000"/>
     <use xlink:href="#mc04a01121f" x="175.356404" y="225.336874" style="stroke: #000000"/>
     <use xlink:href="#mc04a01121f" x="198.546015" y="232.039876" style="stroke: #000000"/>
     <use xlink:href="#mc04a01121f" x="221.735625" y="249.027702" style="stroke: #000000"/>
     <use xlink:href="#mc04a01121f" x="244.925235" y="253.341376" style="stroke: #000000"/>
     <use xlink:href="#mc04a01121f" x="268.114846" y="261.91252" style="stroke: #000000"/>
     <use xlink:href="#mc04a01121f" x="291.304456" y="266.125179" style="stroke: #000000"/>
     <use xlink:href="#mc04a01121f" x="314.494067" y="269.74339" style="stroke: #000000"/>
     <use xlink:href="#mc04a01121f" x="337.683677" y="271.830841" style="stroke: #000000"/>
     <use xlink:href="#mc04a01121f" x="360.873287" y="273.791871" style="stroke: #000000"/>
     <use xlink:href="#mc04a01121f" x="384.062898" y="274.452214" style="stroke: #000000"/>
    </g>
   </g>
   <g id="patch_3">
    <path d="M 43.175625 288.332781 
L 43.175625 22.220781 
" style="fill: none; stroke: #000000; stroke-width: 0.8; stroke-linejoin: miter; stroke-linecap: square"/>
   </g>
   <g id="patch_4">
    <path d="M 400.295625 288.332781 
L 400.295625 22.220781 
" style="fill: none; stroke: #000000; stroke-width: 0.8; stroke-linejoin: miter; stroke-linecap: square"/>
   </g>
   <g id="patch_5">
    <path d="M 43.175625 288.332781 
L 400.295625 288.332781 
" style="fill: none; stroke: #000000; stroke-width: 0.8; stroke-linejoin: miter; stroke-linecap: square"/>
   </g>
   <g id="patch_6">
    <path d="M 43.175625 22.220781 
L 400.295625 22.220781 
" style="fill: none; stroke: #000000; stroke-width: 0.8; stroke-linejoin: miter; stroke-linecap: square"/>
   </g>
   <g id="text_17">
    <!-- MIP solve time [s] vs edge reduction -->
    <g transform="translate(125.940859 16.220781) scale(0.13 -0.13)">
     <use xlink:href="#LiberationSerif-4d"/>
     <use xlink:href="#LiberationSerif-49" transform="translate(88.916016 0)"/>
     <use xlink:href="#LiberationSerif-50" transform="translate(122.216797 0)"/>
     <use xlink:href="#LiberationSerif-20" transform="translate(174.082031 0)"/>
     <use xlink:href="#LiberationSerif-73" transform="translate(199.082031 0)"/>
     <use xlink:href="#LiberationSerif-6f" transform="translate(237.998047 0)"/>
     <use xlink:href="#LiberationSerif-6c" transform="translate(287.998047 0)"/>
     <use xlink:href="#LiberationSerif-76" transform="translate(315.78125 0)"/>
     <use xlink:href="#LiberationSerif-65" transform="translate(365.78125 0)"/>
     <use xlink:href="#LiberationSerif-20" transform="translate(410.166016 0)"/>
     <use xlink:href="#LiberationSerif-74" transform="translate(435.166016 0)"/>
     <use xlink:href="#LiberationSerif-69" transform="translate(462.949219 0)"/>
     <use xlink:href="#LiberationSerif-6d" transform="translate(490.732422 0)"/>
     <use xlink:href="#LiberationSerif-65" transform="translate(568.515625 0)"/>
     <use xlink:href="#LiberationSerif-20" transform="translate(612.900391 0)"/>
     <use xlink:href="#LiberationSerif-5b" transform="translate(637.900391 0)"/>
     <use xlink:href="#LiberationSerif-73" transform="translate(671.201172 0)"/>
     <use xlink:href="#LiberationSerif-5d" transform="translate(710.117188 0)"/>
     <use xlink:href="#LiberationSerif-20" transform="translate(743.417969 0)"/>
     <use xlink:href="#LiberationSerif-76" transform="translate(768.417969 0)"/>
     <use xlink:href="#LiberationSerif-73" transform="translate(818.417969 0)"/>
     <use xlink:href="#LiberationSerif-20" transform="translate(857.333984 0)"/>
     <use xlink:href="#LiberationSerif-65" transform="translate(882.333984 0)"/>
     <use xlink:href="#LiberationSerif-64" transform="translate(926.71875 0)"/>
     <use xlink:href="#LiberationSerif-67" transform="translate(976.71875 0)"/>
     <use xlink:href="#LiberationSerif-65" transform="translate(1026.71875 0)"/>
     <use xlink:href="#LiberationSerif-20" transform="translate(1071.103516 0)"/>
     <use xlink:href="#LiberationSerif-72" transform="translate(1096.103516 0)"/>
     <use xlink:href="#LiberationSerif-65" transform="translate(1129.404297 0)"/>
     <use xlink:href="#LiberationSerif-64" transform="translate(1173.789062 0)"/>
     <use xlink:href="#LiberationSerif-75" transform="translate(1223.789062 0)"/>
     <use xlink:href="#LiberationSerif-63" transform="translate(1273.789062 0)"/>
     <use xlink:href="#LiberationSerif-74" transform="translate(1318.173828 0)"/>
     <use xlink:href="#LiberationSerif-69" transform="translate(1345.957031 0)"/>
     <use xlink:href="#LiberationSerif-6f" transform="translate(1373.740234 0)"/>
     <use xlink:href="#LiberationSerif-6e" transform="translate(1423.740234 0)"/>
    </g>
   </g>
   <g id="legend_1">
    <g id="patch_7">
     <path d="M 344.506875 169.304687 
L 393.995625 169.304687 
Q 395.795625 169.304687 395.795625 167.504687 
L 395.795625 28.520781 
Q 395.795625 26.720781 393.995625 26.720781 
L 344.506875 26.720781 
Q 342.706875 26.720781 342.706875 28.520781 
L 342.706875 167.504687 
Q 342.706875 169.304687 344.506875 169.304687 
z
" style="fill: #ffffff; opacity: 0.8; stroke: #cccccc; stroke-linejoin: miter"/>
    </g>
    <g id="line2d_40">
     <path d="M 346.306875 33.470781 
L 355.306875 33.470781 
L 364.306875 33.470781 
" style="fill: none; stroke-dasharray: 3.7,1.6; stroke-dashoffset: 0; stroke: #999999"/>
     <g>
      <use xlink:href="#m36fb00c417" x="355.306875" y="33.470781" style="fill: #999999; stroke: #999999"/>
     </g>
    </g>
    <g id="text_18">
     <!-- λ=0.0 -->
     <g transform="translate(371.506875 36.620781) scale(0.09 -0.09)">
      <defs>
       <path id="LiberationSerif-3bb" d="M 1716 2388 
Q 1609 2094 713 0 
L 169 0 
L 169 103 
L 1513 3081 
L 1372 3513 
Q 1147 4213 828 4213 
Q 741 4213 650 4175 
L 525 3916 
L 372 3916 
L 372 4447 
Q 588 4506 834 4506 
Q 1125 4506 1306 4315 
Q 1488 4125 1663 3600 
L 2706 459 
Q 2756 309 2859 240 
Q 2963 172 3069 141 
L 3069 0 
L 2456 0 
L 1716 2388 
z
" transform="scale(0.015625)"/>
       <path id="LiberationSerif-3d" d="M 3297 1644 
L 3297 1325 
L 319 1325 
L 319 1644 
L 3297 1644 
z
M 3297 2925 
L 3297 2606 
L 319 2606 
L 319 2925 
L 3297 2925 
z
" transform="scale(0.015625)"/>
       <path id="LiberationSerif-2e" d="M 1178 288 
Q 1178 134 1070 21 
Q 963 -91 800 -91 
Q 638 -91 530 21 
Q 422 134 422 288 
Q 422 447 531 556 
Q 641 666 800 666 
Q 959 666 1068 556 
Q 1178 447 1178 288 
z
" transform="scale(0.015625)"/>
      </defs>
      <use xlink:href="#LiberationSerif-3bb"/>
      <use xlink:href="#LiberationSerif-3d" transform="translate(48.486328 0)"/>
      <use xlink:href="#LiberationSerif-30" transform="translate(104.882812 0)"/>
      <use xlink:href="#LiberationSerif-2e" transform="translate(154.882812 0)"/>
      <use xlink:href="#LiberationSerif-30" transform="translate(179.882812 0)"/>
     </g>
    </g>
    <g id="line2d_41">
     <path d="M 346.306875 46.1875 
L 355.306875 46.1875 
L 364.306875 46.1875 
" style="fill: none; stroke-dasharray: 3.7,1.6; stroke-dashoffset: 0; stroke: #0065bd"/>
     <g>
      <use xlink:href="#mfba7222b9b" x="355.306875" y="46.1875" style="fill: #0065bd; stroke: #0065bd; stroke-linejoin: miter"/>
     </g>
    </g>
    <g id="text_19">
     <!-- λ=0.1 -->
     <g transform="translate(371.506875 49.3375) scale(0.09 -0.09)">
      <use xlink:href="#LiberationSerif-3bb"/>
      <use xlink:href="#LiberationSerif-3d" transform="translate(48.486328 0)"/>
      <use xlink:href="#LiberationSerif-30" transform="translate(104.882812 0)"/>
      <use xlink:href="#LiberationSerif-2e" transform="translate(154.882812 0)"/>
      <use xlink:href="#LiberationSerif-31" transform="translate(179.882812 0)"/>
     </g>
    </g>
    <g id="line2d_42">
     <path d="M 346.306875 58.904219 
L 355.306875 58.904219 
L 364.306875 58.904219 
" style="fill: none; stroke-dasharray: 3.7,1.6; stroke-dashoffset: 0; stroke: #000000"/>
     <g>
      <use xlink:href="#m513cb102f5" x="355.306875" y="58.904219" style="stroke: #000000; stroke-linejoin: miter"/>
     </g>
    </g>
    <g id="text_20">
     <!-- λ=0.2 -->
     <g transform="translate(371.506875 62.054219) scale(0.09 -0.09)">
      <use xlink:href="#LiberationSerif-3bb"/>
      <use xlink:href="#LiberationSerif-3d" transform="translate(48.486328 0)"/>
      <use xlink:href="#LiberationSerif-30" transform="translate(104.882812 0)"/>
      <use xlink:href="#LiberationSerif-2e" transform="translate(154.882812 0)"/>
      <use xlink:href="#LiberationSerif-32" transform="translate(179.882812 0)"/>
     </g>
    </g>
    <g id="line2d_43">
     <path d="M 346.306875 71.620937 
L 355.306875 71.620937 
L 364.306875 71.620937 
" style="fill: none; stroke-dasharray: 3.7,1.6; stroke-dashoffset: 0; stroke: #9fba36"/>
     <g>
      <use xlink:href="#m6fe0f84fac" x="355.306875" y="71.620937" style="fill: #9fba36; stroke: #9fba36; stroke-linejoin: miter"/>
     </g>
    </g>
    <g id="text_21">
     <!-- λ=0.3 -->
     <g transform="translate(371.506875 74.770937) scale(0.09 -0.09)">
      <use xlink:href="#LiberationSerif-3bb"/>
      <use xlink:href="#LiberationSerif-3d" transform="translate(48.486328 0)"/>
      <use xlink:href="#LiberationSerif-30" transform="translate(104.882812 0)"/>
      <use xlink:href="#LiberationSerif-2e" transform="translate(154.882812 0)"/>
      <use xlink:href="#LiberationSerif-33" transform="translate(179.882812 0)"/>
     </g>
    </g>
    <g id="line2d_44">
     <path d="M 346.306875 84.337656 
L 355.306875 84.337656 
L 364.306875 84.337656 
" style="fill: none; stroke-dasharray: 3.7,1.6; stroke-dashoffset: 0; stroke: #999999"/>
     <g>
      <use xlink:href="#mcffc5e0fac" x="355.306875" y="84.337656" style="fill: #999999; stroke: #999999; stroke-linejoin: miter"/>
     </g>
    </g>
    <g id="text_22">
     <!-- λ=0.4 -->
     <g transform="translate(371.506875 87.487656) scale(0.09 -0.09)">
      <use xlink:href="#LiberationSerif-3bb"/>
      <use xlink:href="#LiberationSerif-3d" transform="translate(48.486328 0)"/>
      <use xlink:href="#LiberationSerif-30" transform="translate(104.882812 0)"/>
      <use xlink:href="#LiberationSerif-2e" transform="translate(154.882812 0)"/>
      <use xlink:href="#LiberationSerif-34" transform="translate(179.882812 0)"/>
     </g>
    </g>
    <g id="line2d_45">
     <path d="M 346.306875 97.054375 
L 355.306875 97.054375 
L 364.306875 97.054375 
" style="fill: none; stroke-dasharray: 3.7,1.6; stroke-dashoffset: 0; stroke: #0065bd"/>
     <g>
      <use xlink:href="#m201bd63c71" x="355.306875" y="97.054375" style="fill: #0065bd; stroke: #0065bd"/>
     </g>
    </g>
    <g id="text_23">
     <!-- λ=0.5 -->
     <g transform="translate(371.506875 100.204375) scale(0.09 -0.09)">
      <use xlink:href="#LiberationSerif-3bb"/>
      <use xlink:href="#LiberationSerif-3d" transform="translate(48.486328 0)"/>
      <use xlink:href="#LiberationSerif-30" transform="translate(104.882812 0)"/>
      <use xlink:href="#LiberationSerif-2e" transform="translate(154.882812 0)"/>
      <use xlink:href="#LiberationSerif-35" transform="translate(179.882812 0)"/>
     </g>
    </g>
    <g id="line2d_46">
     <path d="M 346.306875 109.771094 
L 355.306875 109.771094 
L 364.306875 109.771094 
" style="fill: none; stroke-dasharray: 3.7,1.6; stroke-dashoffset: 0; stroke: #000000"/>
     <g>
      <use xlink:href="#m6c4acb82ed" x="355.306875" y="109.771094" style="stroke: #000000; stroke-linejoin: miter"/>
     </g>
    </g>
    <g id="text_24">
     <!-- λ=0.6 -->
     <g transform="translate(371.506875 112.921094) scale(0.09 -0.09)">
      <use xlink:href="#LiberationSerif-3bb"/>
      <use xlink:href="#LiberationSerif-3d" transform="translate(48.486328 0)"/>
      <use xlink:href="#LiberationSerif-30" transform="translate(104.882812 0)"/>
      <use xlink:href="#LiberationSerif-2e" transform="translate(154.882812 0)"/>
      <use xlink:href="#LiberationSerif-36" transform="translate(179.882812 0)"/>
     </g>
    </g>
    <g id="line2d_47">
     <path d="M 346.306875 122.487812 
L 355.306875 122.487812 
L 364.306875 122.487812 
" style="fill: none; stroke-dasharray: 3.7,1.6; stroke-dashoffset: 0; stroke: #9fba36"/>
     <g>
      <use xlink:href="#mf8e4b05cb9" x="355.306875" y="122.487812" style="fill: #9fba36; stroke: #9fba36; stroke-linejoin: miter"/>
     </g>
    </g>
    <g id="text_25">
     <!-- λ=0.7 -->
     <g transform="translate(371.506875 125.637812) scale(0.09 -0.09)">
      <use xlink:href="#LiberationSerif-3bb"/>
      <use xlink:href="#LiberationSerif-3d" transform="translate(48.486328 0)"/>
      <use xlink:href="#LiberationSerif-30" transform="translate(104.882812 0)"/>
      <use xlink:href="#LiberationSerif-2e" transform="translate(154.882812 0)"/>
      <use xlink:href="#LiberationSerif-37" transform="translate(179.882812 0)"/>
     </g>
    </g>
    <g id="line2d_48">
     <path d="M 346.306875 135.204531 
L 355.306875 135.204531 
L 364.306875 135.204531 
" style="fill: none; stroke-dasharray: 3.7,1.6; stroke-dashoffset: 0; stroke: #999999"/>
     <g>
      <use xlink:href="#m9de47c2ff8" x="355.306875" y="135.204531" style="fill: #999999; stroke: #999999; stroke-linejoin: miter"/>
     </g>
    </g>
    <g id="text_26">
     <!-- λ=0.8 -->
     <g transform="translate(371.506875 138.354531) scale(0.09 -0.09)">
      <defs>
       <path id="LiberationSerif-38" d="M 2828 3169 
Q 2828 2825 2661 2586 
Q 2494 2347 2209 2222 
Q 2566 2091 2761 1811 
Q 2956 1531 2956 1131 
Q 2956 538 2622 237 
Q 2288 -63 1581 -63 
Q 244 -63 244 1131 
Q 244 1547 444 1820 
Q 644 2094 984 2222 
Q 713 2347 542 2584 
Q 372 2822 372 3169 
Q 372 3688 689 3972 
Q 1006 4256 1606 4256 
Q 2188 4256 2508 3973 
Q 2828 3691 2828 3169 
z
M 2394 1131 
Q 2394 1631 2198 1856 
Q 2003 2081 1581 2081 
Q 1169 2081 987 1867 
Q 806 1653 806 1131 
Q 806 603 990 393 
Q 1175 184 1581 184 
Q 1997 184 2195 401 
Q 2394 619 2394 1131 
z
M 2266 3169 
Q 2266 3600 2097 3803 
Q 1928 4006 1588 4006 
Q 1256 4006 1095 3809 
Q 934 3613 934 3169 
Q 934 2734 1090 2545 
Q 1247 2356 1588 2356 
Q 1938 2356 2102 2548 
Q 2266 2741 2266 3169 
z
" transform="scale(0.015625)"/>
      </defs>
      <use xlink:href="#LiberationSerif-3bb"/>
      <use xlink:href="#LiberationSerif-3d" transform="translate(48.486328 0)"/>
      <use xlink:href="#LiberationSerif-30" transform="translate(104.882812 0)"/>
      <use xlink:href="#LiberationSerif-2e" transform="translate(154.882812 0)"/>
      <use xlink:href="#LiberationSerif-38" transform="translate(179.882812 0)"/>
     </g>
    </g>
    <g id="line2d_49">
     <path d="M 346.306875 147.92125 
L 355.306875 147.92125 
L 364.306875 147.92125 
" style="fill: none; stroke-dasharray: 3.7,1.6; stroke-dashoffset: 0; stroke: #0065bd"/>
     <g>
      <use xlink:href="#m7993ff0ef8" x="355.306875" y="147.92125" style="fill: #0065bd; stroke: #0065bd; stroke-linejoin: miter"/>
     </g>
    </g>
    <g id="text_27">
     <!-- λ=0.9 -->
     <g transform="translate(371.506875 151.07125) scale(0.09 -0.09)">
      <defs>
       <path id="LiberationSerif-39" d="M 206 2913 
Q 206 3544 559 3891 
Q 913 4238 1556 4238 
Q 2272 4238 2605 3722 
Q 2938 3206 2938 2106 
Q 2938 1053 2509 495 
Q 2081 -63 1306 -63 
Q 797 -63 372 44 
L 372 769 
L 575 769 
L 684 319 
Q 784 272 953 234 
Q 1122 197 1294 197 
Q 1794 197 2062 636 
Q 2331 1075 2359 1928 
Q 1884 1663 1394 1663 
Q 841 1663 523 1992 
Q 206 2322 206 2913 
z
M 1563 3988 
Q 781 3988 781 2900 
Q 781 2422 968 2194 
Q 1156 1966 1550 1966 
Q 1953 1966 2363 2131 
Q 2363 3091 2173 3539 
Q 1984 3988 1563 3988 
z
" transform="scale(0.015625)"/>
      </defs>
      <use xlink:href="#LiberationSerif-3bb"/>
      <use xlink:href="#LiberationSerif-3d" transform="translate(48.486328 0)"/>
      <use xlink:href="#LiberationSerif-30" transform="translate(104.882812 0)"/>
      <use xlink:href="#LiberationSerif-2e" transform="translate(154.882812 0)"/>
      <use xlink:href="#LiberationSerif-39" transform="translate(179.882812 0)"/>
     </g>
    </g>
    <g id="line2d_50">
     <path d="M 346.306875 160.637969 
L 355.306875 160.637969 
L 364.306875 160.637969 
" style="fill: none; stroke-dasharray: 3.7,1.6; stroke-dashoffset: 0; stroke: #000000"/>
     <g>
      <use xlink:href="#mc04a01121f" x="355.306875" y="160.637969" style="stroke: #000000"/>
     </g>
    </g>
    <g id="text_28">
     <!-- λ=1.0 -->
     <g transform="translate(371.506875 163.787969) scale(0.09 -0.09)">
      <use xlink:href="#LiberationSerif-3bb"/>
      <use xlink:href="#LiberationSerif-3d" transform="translate(48.486328 0)"/>
      <use xlink:href="#LiberationSerif-31" transform="translate(104.882812 0)"/>
      <use xlink:href="#LiberationSerif-2e" transform="translate(154.882812 0)"/>
      <use xlink:href="#LiberationSerif-30" transform="translate(179.882812 0)"/>
     </g>
    </g>
   </g>
  </g>
 </g>
 <defs>
  <clipPath id="p232c75db08">
   <rect x="43.175625" y="22.220781" width="357.12" height="266.112"/>
  </clipPath>
 </defs>
</svg>
